<mxfile host="drawio-plugin" agent="Mozilla/5.0 (Macintosh; Intel Mac OS X 10_15_7) AppleWebKit/537.36 (KHTML, like Gecko) Chrome/122.0.0.0 Safari/537.36" modified="2024-12-08T18:26:00.569Z" version="22.1.22" etag="ecrQuT1aOic7xjtF0o7h" type="embed" pages="2">
  <diagram name="as-is" id="5pW9GiYHFLtiiQ2NxwVi">
    <mxGraphModel dx="686" dy="403" grid="1" gridSize="10" guides="1" tooltips="1" connect="1" arrows="1" fold="1" page="1" pageScale="1" pageWidth="827" pageHeight="1169" math="0" shadow="0">
      <root>
        <mxCell id="0" />
        <mxCell id="1" parent="0" />
        <mxCell id="meamKeTm-kX2_XubF3lI-2" value="&lt;div style=&quot;font-size: 1px&quot;&gt;&lt;font style=&quot;font-size:22.58px;font-family:Arial;color:#000000;direction:ltr;letter-spacing:0px;line-height:120%;opacity:1&quot;&gt;Зона доступности 1&lt;br&gt;&lt;/font&gt;&lt;/div&gt;" style="verticalAlign=bottom;align=center;overflow=width;vsdxID=5;fillColor=#e3ebff;gradientColor=none;shape=stencil(vVNBDsIgEHwNRwxCjHqu+g9iaUtEaBa09fdSwdpi9dBDb8vOwOwsGcQyW/FaIEqsA3MRjcxdhdgBUSp1JUA6XyF2RCwrDIgSzE3n4VzzjtlVV3PvXmjDPdLdoOQRTrvtavNqnAKXw9mDELkBIhDJaxrJZIy/YRLfbjFvpcVgHHfS6JGu4lAK7GVwoXg5gmwjRP3VjoMpqQcm9tPKs0z0Y6crWcBHqt0PN8tJspXFfmNKdpaBH8tYwML/VPjiE6dCKhXSOMTT+PlWiC47PgE=);strokeColor=none;spacingTop=-3;spacingBottom=-3;spacingLeft=-3;spacingRight=-3;points=[];labelBackgroundColor=none;rounded=0;html=1;whiteSpace=wrap;container=0;" parent="1" vertex="1">
          <mxGeometry x="40" y="270" width="390.22" height="430" as="geometry" />
        </mxCell>
        <mxCell id="meamKeTm-kX2_XubF3lI-3" style="edgeStyle=orthogonalEdgeStyle;rounded=0;orthogonalLoop=1;jettySize=auto;html=1;" parent="1" source="meamKeTm-kX2_XubF3lI-8" target="meamKeTm-kX2_XubF3lI-9" edge="1">
          <mxGeometry relative="1" as="geometry" />
        </mxCell>
        <mxCell id="meamKeTm-kX2_XubF3lI-4" value="TCP" style="edgeLabel;html=1;align=center;verticalAlign=middle;resizable=0;points=[];container=0;" parent="meamKeTm-kX2_XubF3lI-3" vertex="1" connectable="0">
          <mxGeometry x="-0.0566" y="2" relative="1" as="geometry">
            <mxPoint as="offset" />
          </mxGeometry>
        </mxCell>
        <mxCell id="meamKeTm-kX2_XubF3lI-5" style="edgeStyle=orthogonalEdgeStyle;rounded=0;orthogonalLoop=1;jettySize=auto;html=1;" parent="1" source="meamKeTm-kX2_XubF3lI-13" target="meamKeTm-kX2_XubF3lI-7" edge="1">
          <mxGeometry relative="1" as="geometry">
            <Array as="points">
              <mxPoint x="305" y="230" />
              <mxPoint x="305" y="230" />
            </Array>
          </mxGeometry>
        </mxCell>
        <mxCell id="meamKeTm-kX2_XubF3lI-6" value="" style="shape=image;verticalLabelPosition=bottom;verticalAlign=top;imageAspect=0;aspect=fixed;image=data:image/svg+xml,PHN2ZyB4bWxucz0iaHR0cDovL3d3dy53My5vcmcvMjAwMC9zdmciIHdpZHRoPSIzMiIgaGVpZ2h0PSIzMiIgdmlld0JveD0iMCAwIDMyIDMyIiBmaWxsPSJub25lIj4mI3hhOzxwYXRoIGQ9Ik0wIDE2QzAgNy4xNjM0NCA3LjE2MzQ0IDAgMTYgMFYwQzI0LjgzNjYgMCAzMiA3LjE2MzQ0IDMyIDE2VjE2QzMyIDI0LjgzNjYgMjQuODM2NiAzMiAxNiAzMlYzMkM3LjE2MzQ0IDMyIDAgMjQuODM2NiAwIDE2VjE2WiIgZmlsbD0iIzUyODJGRiIvPiYjeGE7PHBhdGggZD0iTTExLjk5NSAyNEw3LjAwMDk4IDE3LjczOEw4Ljc4MTk4IDkuOTI3TDE2IDYuNDUzTDIzLjIxOCA5LjkyOEwyNC45OTkgMTcuNzM5TDIwLjAwNSAyNEgxMS45OTVaTTIwIDEzLjE5NkwxNS45OTkgMTAuODk5TDEyIDEzLjE5NlYxOC4xTDE2IDIwLjQwMUwyMCAxOC4xVjEzLjE5NlpNMTguNzggMTMuODk2SDE4Ljc4N0wxNiAxNS40OTlMMTMuMjE0IDEzLjg5NUgxMy4yMTlMMTUuOTk5IDEyLjI5OUwxOC43OCAxMy44OTZaIiBmaWxsPSJ3aGl0ZSIvPiYjeGE7PC9zdmc+;container=0;" parent="1" vertex="1">
          <mxGeometry x="305" y="340" width="28.571428571428573" height="28.571428571428573" as="geometry" />
        </mxCell>
        <mxCell id="meamKeTm-kX2_XubF3lI-7" style="vsdxID=5;fillColor=none;gradientColor=none;shape=stencil(vVPLEoIgFP0aljgEVuPa6j+YRGUica6U9vdhUKk4LWzG3X0cOPdcOIilTclrgShpDOiLaGVmSsQOiFJZlQKksRFiR8TSXIMoQN+qzOU175F9dNX3/obOnSP9CUoeLktIFL8KJ4flcLZN8NhtRJiDwxsf7VwhQHjAhniCDvNONhi04UbqakSuOBQCWy6cK16MWk0rRB2U/XRKVgMlSRwl+1nyhWI+s0+Xs4KYgNvPtlBKuJvVniX4En+9yfxWVpDx2yc2+Bosl0o5fw77U0PakjMzOz4B);strokeColor=#ff5958;spacingTop=-3;spacingBottom=-3;spacingLeft=-3;spacingRight=-3;points=[];labelBackgroundColor=none;rounded=0;html=1;whiteSpace=wrap;container=0;" parent="1" vertex="1">
          <mxGeometry x="240" y="330" width="130" height="100" as="geometry" />
        </mxCell>
        <mxCell id="meamKeTm-kX2_XubF3lI-8" value="&lt;div style=&quot;font-size: 1px&quot;&gt;&lt;font style=&quot;font-size:22.58px;font-family:Arial;color:#000000;direction:ltr;letter-spacing:0px;line-height:120%;opacity:1&quot;&gt;InsureTech&lt;/font&gt;&lt;/div&gt;&lt;div style=&quot;font-size: 1px&quot;&gt;&lt;font style=&quot;font-size:22.58px;font-family:Arial;color:#000000;direction:ltr;letter-spacing:0px;line-height:120%;opacity:1&quot;&gt;namespace&lt;/font&gt;&lt;/div&gt;" style="verticalAlign=bottom;align=center;overflow=width;vsdxID=6;fillColor=none;gradientColor=none;strokeColor=none;spacingTop=-3;spacingBottom=-3;spacingLeft=-3;spacingRight=-3;points=[];labelBackgroundColor=none;rounded=0;html=1;whiteSpace=wrap;container=0;" parent="1" vertex="1">
          <mxGeometry x="240" y="370" width="130" height="54" as="geometry" />
        </mxCell>
        <mxCell id="meamKeTm-kX2_XubF3lI-9" style="vsdxID=5;fillColor=none;gradientColor=none;shape=stencil(vVPLEoIgFP0aljgEVuPa6j+YRGUica6U9vdhUKk4LWzG3X0cOPdcOIilTclrgShpDOiLaGVmSsQOiFJZlQKksRFiR8TSXIMoQN+qzOU175F9dNX3/obOnSP9CUoeLktIFL8KJ4flcLZN8NhtRJiDwxsf7VwhQHjAhniCDvNONhi04UbqakSuOBQCWy6cK16MWk0rRB2U/XRKVgMlSRwl+1nyhWI+s0+Xs4KYgNvPtlBKuJvVniX4En+9yfxWVpDx2yc2+Bosl0o5fw77U0PakjMzOz4B);strokeColor=#ff5958;spacingTop=-3;spacingBottom=-3;spacingLeft=-3;spacingRight=-3;points=[];labelBackgroundColor=none;rounded=0;html=1;whiteSpace=wrap;container=0;" parent="1" vertex="1">
          <mxGeometry x="240" y="504.11" width="130" height="105.5" as="geometry" />
        </mxCell>
        <mxCell id="meamKeTm-kX2_XubF3lI-10" value="&lt;div style=&quot;font-size: 1px&quot;&gt;&lt;font style=&quot;font-size:22.58px;font-family:Arial;color:#000000;direction:ltr;letter-spacing:0px;line-height:120%;opacity:1&quot;&gt;PosrgreSQL&lt;br&gt;&lt;/font&gt;&lt;/div&gt;&lt;div style=&quot;font-size: 1px&quot;&gt;&lt;font style=&quot;font-size:22.58px;font-family:Arial;color:#000000;direction:ltr;letter-spacing:0px;line-height:120%;opacity:1&quot;&gt;(master)&lt;/font&gt;&lt;/div&gt;" style="verticalAlign=bottom;align=center;overflow=width;vsdxID=6;fillColor=none;gradientColor=none;strokeColor=none;spacingTop=-3;spacingBottom=-3;spacingLeft=-3;spacingRight=-3;points=[];labelBackgroundColor=none;rounded=0;html=1;whiteSpace=wrap;container=0;" parent="1" vertex="1">
          <mxGeometry x="240" y="549.11" width="130" height="53.21" as="geometry" />
        </mxCell>
        <mxCell id="meamKeTm-kX2_XubF3lI-11" value="" style="shape=image;verticalLabelPosition=bottom;verticalAlign=top;imageAspect=0;aspect=fixed;image=data:image/svg+xml,PHN2ZyB4bWxucz0iaHR0cDovL3d3dy53My5vcmcvMjAwMC9zdmciIHdpZHRoPSIzMiIgaGVpZ2h0PSIzMiIgdmlld0JveD0iMCAwIDMyIDMyIiBmaWxsPSJub25lIj4mI3hhOzxwYXRoIGQ9Ik0wIDE2QzAgNy4xNjM0NCA3LjE2MzQ0IDAgMTYgMFYwQzI0LjgzNjYgMCAzMiA3LjE2MzQ0IDMyIDE2VjE2QzMyIDI0LjgzNjYgMjQuODM2NiAzMiAxNiAzMlYzMkM3LjE2MzQ0IDMyIDAgMjQuODM2NiAwIDE2VjE2WiIgZmlsbD0iIzUyODJGRiIvPiYjeGE7PHBhdGggZmlsbC1ydWxlPSJldmVub2RkIiBjbGlwLXJ1bGU9ImV2ZW5vZGQiIGQ9Ik0xMyA4SDE4QzIxLjMgOCAyNCAxMC43IDI0IDE0VjI0SDIwVjIwSDIyVjE5SDE4LjZDMTUuNSAxOSAxMyAxNi41IDEzIDEzLjRWOFpNMTkgMTdIMjFWMTVIMTlWMTdaTTEyIDkuMDk5OThWMTMuNEMxMiAxNi44IDE0LjYgMTkuNyAxOCAyMC4xVjIwLjZDMTggMjIgMTUuOCAyMy4xIDEzIDIzLjFDMTAuMiAyMy4xIDggMjIgOCAyMC42VjExLjZDOCAxMC4zIDkuNyA5LjI5OTk4IDEyIDkuMDk5OThaIiBmaWxsPSJ3aGl0ZSIvPiYjeGE7PC9zdmc+;container=0;" parent="1" vertex="1">
          <mxGeometry x="284.5" y="508.11" width="36.26923076923077" height="36.26923076923077" as="geometry" />
        </mxCell>
        <mxCell id="meamKeTm-kX2_XubF3lI-12" value="" style="aspect=fixed;sketch=0;html=1;dashed=0;whitespace=wrap;verticalLabelPosition=bottom;verticalAlign=top;fillColor=#2875E2;strokeColor=#ffffff;points=[[0.005,0.63,0],[0.1,0.2,0],[0.9,0.2,0],[0.5,0,0],[0.995,0.63,0],[0.72,0.99,0],[0.5,1,0],[0.28,0.99,0]];shape=mxgraph.kubernetes.icon2;prIcon=group;container=0;" parent="1" vertex="1">
          <mxGeometry x="310.63" y="50" width="50" height="48" as="geometry" />
        </mxCell>
        <mxCell id="meamKeTm-kX2_XubF3lI-13" style="vsdxID=5;fillColor=none;gradientColor=none;shape=stencil(vVPLEoIgFP0aljgEVuPa6j+YRGUica6U9vdhUKk4LWzG3X0cOPdcOIilTclrgShpDOiLaGVmSsQOiFJZlQKksRFiR8TSXIMoQN+qzOU175F9dNX3/obOnSP9CUoeLktIFL8KJ4flcLZN8NhtRJiDwxsf7VwhQHjAhniCDvNONhi04UbqakSuOBQCWy6cK16MWk0rRB2U/XRKVgMlSRwl+1nyhWI+s0+Xs4KYgNvPtlBKuJvVniX4En+9yfxWVpDx2yc2+Bosl0o5fw77U0PakjMzOz4B);strokeColor=#ff5958;spacingTop=-3;spacingBottom=-3;spacingLeft=-3;spacingRight=-3;points=[];labelBackgroundColor=none;rounded=0;html=1;whiteSpace=wrap;container=0;" parent="1" vertex="1">
          <mxGeometry x="226.63" y="40" width="152" height="130" as="geometry" />
        </mxCell>
        <mxCell id="meamKeTm-kX2_XubF3lI-14" value="&lt;div style=&quot;font-size: 1px&quot;&gt;&lt;font style=&quot;font-size:22.58px;font-family:Arial;color:#000000;direction:ltr;letter-spacing:0px;line-height:120%;opacity:1&quot;&gt;Браузер&amp;nbsp;&lt;/font&gt;&lt;/div&gt;&lt;div style=&quot;font-size: 1px&quot;&gt;&lt;font style=&quot;font-size:22.58px;font-family:Arial;color:#000000;direction:ltr;letter-spacing:0px;line-height:120%;opacity:1&quot;&gt;пользователя&lt;/font&gt;&lt;/div&gt;" style="verticalAlign=bottom;align=center;overflow=width;vsdxID=6;fillColor=none;gradientColor=none;strokeColor=none;spacingTop=-3;spacingBottom=-3;spacingLeft=-3;spacingRight=-3;points=[];labelBackgroundColor=none;rounded=0;html=1;whiteSpace=wrap;container=0;" parent="1" vertex="1">
          <mxGeometry x="226.63" y="107" width="152" height="53" as="geometry" />
        </mxCell>
        <mxCell id="meamKeTm-kX2_XubF3lI-15" value="" style="group" parent="1" vertex="1" connectable="0">
          <mxGeometry x="70" y="490" width="320" height="133.71" as="geometry" />
        </mxCell>
        <mxCell id="meamKeTm-kX2_XubF3lI-16" style="vsdxID=6;fillColor=none;gradientColor=none;shape=stencil(vVNdD4IgFP01POIQms1nq//BEpVF4q6U9u/DoFJxPdjm2/04cO65cBDL2oo3AlHSGtAX0cncVIgdEKWyrgRIYyPEjohlhQZRgr7VucsbPiCH6Krvww29O0eGE5Q8XJaSaPcqnByWw9k2wWNZRFMHhzc+SlwhQHhATDxBj3kvWwzacCN1PSFXHEqBLRcuFC8nrbYTognKfjol65GSNIn28SL5SjGf2efL2UBMwO1nWykl3M1mzxJ8ib/eZHkrG8j47RMbfA1WSKWcP8f9uSFtyZmZHZ8=);strokeColor=#5282ff;spacingTop=-3;spacingBottom=-3;spacingLeft=-3;spacingRight=-3;points=[];labelBackgroundColor=none;rounded=0;html=1;whiteSpace=wrap;container=0;" parent="meamKeTm-kX2_XubF3lI-15" vertex="1">
          <mxGeometry width="320" height="133.70999999999998" as="geometry" />
        </mxCell>
        <mxCell id="meamKeTm-kX2_XubF3lI-17" value="" style="shape=image;verticalLabelPosition=bottom;verticalAlign=top;imageAspect=0;aspect=fixed;image=data:image/svg+xml,PHN2ZyB4bWxucz0iaHR0cDovL3d3dy53My5vcmcvMjAwMC9zdmciIHdpZHRoPSIzMiIgaGVpZ2h0PSIzMiIgdmlld0JveD0iMCAwIDMyIDMyIiBmaWxsPSJub25lIj4mI3hhOzxwYXRoIGQ9Ik0wIDE2QzAgNy4xNjM0NCA3LjE2MzQ0IDAgMTYgMFYwQzI0LjgzNjYgMCAzMiA3LjE2MzQ0IDMyIDE2VjE2QzMyIDI0LjgzNjYgMjQuODM2NiAzMiAxNiAzMlYzMkM3LjE2MzQ0IDMyIDAgMjQuODM2NiAwIDE2VjE2WiIgZmlsbD0iIzUyODJGRiIvPiYjeGE7PHBhdGggZD0iTTI0IDE1VjEzSDIyVjExQzIyIDEwLjQgMjEuNiAxMCAyMSAxMEgxOVY4SDE3VjEwSDE1VjhIMTNWMTBIMTFDMTAuNCAxMCAxMCAxMC40IDEwIDExVjEzSDhWMTVIMTBWMTdIOFYxOUgxMFYyMUMxMCAyMS42IDEwLjQgMjIgMTEgMjJIMTNWMjRIMTVWMjJIMTdWMjRIMTlWMjJIMjFDMjEuNiAyMiAyMiAyMS42IDIyIDIxVjE5SDI0VjE3SDIyVjE1SDI0Wk0xOSAxOUgxM1YxM0gxOVYxOVoiIGZpbGw9IndoaXRlIi8+JiN4YTs8L3N2Zz4=;container=0;" parent="meamKeTm-kX2_XubF3lI-15" vertex="1">
          <mxGeometry x="38.55515151515151" y="85.11" width="25.09090909090909" height="25.09090909090909" as="geometry" />
        </mxCell>
        <mxCell id="meamKeTm-kX2_XubF3lI-18" value="&lt;div style=&quot;font-size: 1px&quot;&gt;&lt;font style=&quot;font-size:22.58px;font-family:Arial;color:#000000;direction:ltr;letter-spacing:0px;line-height:120%;opacity:1&quot;&gt;VM 1&lt;br&gt;&lt;/font&gt;&lt;/div&gt;" style="verticalAlign=middle;align=center;overflow=width;vsdxID=7;fillColor=none;gradientColor=none;shape=stencil(nZBLDoAgDERP0z3SIyjew0SURgSD+Lu9kMZoXLhwN9O+tukAlrNpJg1SzDH4QW/URgNYgZTkjA4UkwJUgGXng+6DX1zLfmoymdXo17xh5zmRJ6Q42BWCfc2oJfdAr+Yv+AP9Cb7OJ3H/2JG1HNGz/84klThPVCc=);strokeColor=none;points=[];labelBackgroundColor=none;rounded=0;html=1;whiteSpace=wrap;container=0;" parent="meamKeTm-kX2_XubF3lI-15" vertex="1">
          <mxGeometry x="8.630303030303008" y="19.999999999999996" width="93.29454545454544" height="45.88999999999999" as="geometry" />
        </mxCell>
        <mxCell id="meamKeTm-kX2_XubF3lI-19" value="" style="group" parent="1" vertex="1" connectable="0">
          <mxGeometry x="70" y="310" width="320" height="133.71" as="geometry" />
        </mxCell>
        <mxCell id="meamKeTm-kX2_XubF3lI-20" value="" style="shape=image;verticalLabelPosition=bottom;verticalAlign=top;imageAspect=0;aspect=fixed;image=data:image/svg+xml,PHN2ZyB4bWxucz0iaHR0cDovL3d3dy53My5vcmcvMjAwMC9zdmciIHdpZHRoPSIzMiIgaGVpZ2h0PSIzMiIgdmlld0JveD0iMCAwIDMyIDMyIiBmaWxsPSJub25lIj4mI3hhOzxwYXRoIGQ9Ik0wIDE2QzAgNy4xNjM0NCA3LjE2MzQ0IDAgMTYgMFYwQzI0LjgzNjYgMCAzMiA3LjE2MzQ0IDMyIDE2VjE2QzMyIDI0LjgzNjYgMjQuODM2NiAzMiAxNiAzMlYzMkM3LjE2MzQ0IDMyIDAgMjQuODM2NiAwIDE2VjE2WiIgZmlsbD0iIzUyODJGRiIvPiYjeGE7PHBhdGggZD0iTTExLjk5NSAyNEw3LjAwMDk4IDE3LjczOEw4Ljc4MTk4IDkuOTI3TDE2IDYuNDUzTDIzLjIxOCA5LjkyOEwyNC45OTkgMTcuNzM5TDIwLjAwNSAyNEgxMS45OTVaTTIwIDEzLjE5NkwxNS45OTkgMTAuODk5TDEyIDEzLjE5NlYxOC4xTDE2IDIwLjQwMUwyMCAxOC4xVjEzLjE5NlpNMTguNzggMTMuODk2SDE4Ljc4N0wxNiAxNS40OTlMMTMuMjE0IDEzLjg5NUgxMy4yMTlMMTUuOTk5IDEyLjI5OUwxOC43OCAxMy44OTZaIiBmaWxsPSJ3aGl0ZSIvPiYjeGE7PC9zdmc+;container=0;" parent="meamKeTm-kX2_XubF3lI-19" vertex="1">
          <mxGeometry x="43.99515151515152" y="86.14999999999996" width="27.69545454545455" height="27.69545454545455" as="geometry" />
        </mxCell>
        <mxCell id="meamKeTm-kX2_XubF3lI-21" value="&lt;div style=&quot;font-size: 1px&quot;&gt;&lt;font style=&quot;font-size:22.58px;font-family:Arial;color:#000000;direction:ltr;letter-spacing:0px;line-height:120%;opacity:1&quot;&gt;Kubernetes&lt;br&gt;&lt;/font&gt;&lt;/div&gt;&lt;div style=&quot;font-size: 1px&quot;&gt;&lt;font style=&quot;font-size:22.58px;font-family:Arial;color:#000000;direction:ltr;letter-spacing:0px;line-height:120%;opacity:1&quot;&gt;cluster 1&lt;/font&gt;&lt;/div&gt;" style="verticalAlign=middle;align=center;overflow=width;vsdxID=7;fillColor=none;gradientColor=none;shape=stencil(nZBLDoAgDERP0z3SIyjew0SURgSD+Lu9kMZoXLhwN9O+tukAlrNpJg1SzDH4QW/URgNYgZTkjA4UkwJUgGXng+6DX1zLfmoymdXo17xh5zmRJ6Q42BWCfc2oJfdAr+Yv+AP9Cb7OJ3H/2JG1HNGz/84klThPVCc=);strokeColor=none;points=[];labelBackgroundColor=none;rounded=0;html=1;whiteSpace=wrap;container=0;" parent="meamKeTm-kX2_XubF3lI-19" vertex="1">
          <mxGeometry x="9.696969696969697" width="116.36363636363637" height="86.13999999999999" as="geometry" />
        </mxCell>
        <mxCell id="meamKeTm-kX2_XubF3lI-22" style="vsdxID=6;fillColor=none;gradientColor=none;shape=stencil(vVNdD4IgFP01POIQms1nq//BEpVF4q6U9u/DoFJxPdjm2/04cO65cBDL2oo3AlHSGtAX0cncVIgdEKWyrgRIYyPEjohlhQZRgr7VucsbPiCH6Krvww29O0eGE5Q8XJaSaPcqnByWw9k2wWNZRFMHhzc+SlwhQHhATDxBj3kvWwzacCN1PSFXHEqBLRcuFC8nrbYTognKfjol65GSNIn28SL5SjGf2efL2UBMwO1nWykl3M1mzxJ8ib/eZHkrG8j47RMbfA1WSKWcP8f9uSFtyZmZHZ8=);strokeColor=#5282ff;spacingTop=-3;spacingBottom=-3;spacingLeft=-3;spacingRight=-3;points=[];labelBackgroundColor=none;rounded=0;html=1;whiteSpace=wrap;container=0;" parent="1" vertex="1">
          <mxGeometry x="70" y="310" width="320" height="133.70999999999998" as="geometry" />
        </mxCell>
      </root>
    </mxGraphModel>
  </diagram>
  <diagram id="LoDXFJbQNYgNcVaDveN2" name="InureTech_технологическая архитектура_to-be">
    <mxGraphModel dx="2040" dy="1061" grid="1" gridSize="10" guides="1" tooltips="1" connect="1" arrows="1" fold="1" page="1" pageScale="1" pageWidth="827" pageHeight="1169" math="0" shadow="0">
      <root>
        <mxCell id="0" />
        <mxCell id="1" parent="0" />
        <mxCell id="LpiCmBX2S6yraUxqQmJm-117" value="&lt;div style=&quot;font-size: 1px&quot;&gt;&lt;font style=&quot;font-size:22.58px;font-family:Arial;color:#000000;direction:ltr;letter-spacing:0px;line-height:120%;opacity:1&quot;&gt;Зона доступности 2&lt;br&gt;&lt;/font&gt;&lt;/div&gt;" style="verticalAlign=bottom;align=center;overflow=width;vsdxID=5;fillColor=#e3ebff;gradientColor=none;shape=stencil(vVNBDsIgEHwNRwxCjHqu+g9iaUtEaBa09fdSwdpi9dBDb8vOwOwsGcQyW/FaIEqsA3MRjcxdhdgBUSp1JUA6XyF2RCwrDIgSzE3n4VzzjtlVV3PvXmjDPdLdoOQRTrvtavNqnAKXw9mDELkBIhDJaxrJZIy/YRLfbjFvpcVgHHfS6JGu4lAK7GVwoXg5gmwjRP3VjoMpqQcm9tPKs0z0Y6crWcBHqt0PN8tJspXFfmNKdpaBH8tYwML/VPjiE6dCKhXSOMTT+PlWiC47PgE=);strokeColor=none;spacingTop=-3;spacingBottom=-3;spacingLeft=-3;spacingRight=-3;points=[];labelBackgroundColor=none;rounded=0;html=1;whiteSpace=wrap;container=0;" parent="1" vertex="1">
          <mxGeometry x="827" y="405" width="590" height="720" as="geometry" />
        </mxCell>
        <mxCell id="LpiCmBX2S6yraUxqQmJm-118" style="vsdxID=6;fillColor=none;gradientColor=none;shape=stencil(vVNdD4IgFP01POIQms1nq//BEpVF4q6U9u/DoFJxPdjm2/04cO65cBDL2oo3AlHSGtAX0cncVIgdEKWyrgRIYyPEjohlhQZRgr7VucsbPiCH6Krvww29O0eGE5Q8XJaSaPcqnByWw9k2wWNZRFMHhzc+SlwhQHhATDxBj3kvWwzacCN1PSFXHEqBLRcuFC8nrbYTognKfjol65GSNIn28SL5SjGf2efL2UBMwO1nWykl3M1mzxJ8ib/eZHkrG8j47RMbfA1WSKWcP8f9uSFtyZmZHZ8=);strokeColor=#5282ff;spacingTop=-3;spacingBottom=-3;spacingLeft=-3;spacingRight=-3;points=[];labelBackgroundColor=none;rounded=0;html=1;whiteSpace=wrap;container=0;" parent="1" vertex="1">
          <mxGeometry x="927" y="418" width="460" height="360" as="geometry" />
        </mxCell>
        <mxCell id="LpiCmBX2S6yraUxqQmJm-133" value="" style="group" parent="1" vertex="1" connectable="0">
          <mxGeometry x="928.9300000000001" y="803" width="458.07000000000005" height="133.71" as="geometry" />
        </mxCell>
        <mxCell id="LpiCmBX2S6yraUxqQmJm-138" style="vsdxID=6;fillColor=none;gradientColor=none;shape=stencil(vVNdD4IgFP01POIQms1nq//BEpVF4q6U9u/DoFJxPdjm2/04cO65cBDL2oo3AlHSGtAX0cncVIgdEKWyrgRIYyPEjohlhQZRgr7VucsbPiCH6Krvww29O0eGE5Q8XJaSaPcqnByWw9k2wWNZRFMHhzc+SlwhQHhATDxBj3kvWwzacCN1PSFXHEqBLRcuFC8nrbYTognKfjol65GSNIn28SL5SjGf2efL2UBMwO1nWykl3M1mzxJ8ib/eZHkrG8j47RMbfA1WSKWcP8f9uSFtyZmZHZ8=);strokeColor=#5282ff;spacingTop=-3;spacingBottom=-3;spacingLeft=-3;spacingRight=-3;points=[];labelBackgroundColor=none;rounded=0;html=1;whiteSpace=wrap;container=0;" parent="LpiCmBX2S6yraUxqQmJm-133" vertex="1">
          <mxGeometry width="458.07000000000005" height="133.70999999999995" as="geometry" />
        </mxCell>
        <mxCell id="LpiCmBX2S6yraUxqQmJm-134" style="vsdxID=5;fillColor=none;gradientColor=none;shape=stencil(vVPLEoIgFP0aljgEVuPa6j+YRGUica6U9vdhUKk4LWzG3X0cOPdcOIilTclrgShpDOiLaGVmSsQOiFJZlQKksRFiR8TSXIMoQN+qzOU175F9dNX3/obOnSP9CUoeLktIFL8KJ4flcLZN8NhtRJiDwxsf7VwhQHjAhniCDvNONhi04UbqakSuOBQCWy6cK16MWk0rRB2U/XRKVgMlSRwl+1nyhWI+s0+Xs4KYgNvPtlBKuJvVniX4En+9yfxWVpDx2yc2+Bosl0o5fw77U0PakjMzOz4B);strokeColor=#ff5958;spacingTop=-3;spacingBottom=-3;spacingLeft=-3;spacingRight=-3;points=[];labelBackgroundColor=none;rounded=0;html=1;whiteSpace=wrap;container=0;" parent="LpiCmBX2S6yraUxqQmJm-133" vertex="1">
          <mxGeometry x="243.34968750000002" y="14.110000000000124" width="186.0909375" height="105.49999999999997" as="geometry" />
        </mxCell>
        <mxCell id="LpiCmBX2S6yraUxqQmJm-135" value="&lt;div style=&quot;font-size: 1px&quot;&gt;&lt;font style=&quot;font-size:22.58px;font-family:Arial;color:#000000;direction:ltr;letter-spacing:0px;line-height:120%;opacity:1&quot;&gt;PosrgreSQL&lt;br&gt;&lt;/font&gt;&lt;/div&gt;&lt;div style=&quot;font-size: 1px&quot;&gt;&lt;font style=&quot;font-size:22.58px;font-family:Arial;color:#000000;direction:ltr;letter-spacing:0px;line-height:120%;opacity:1&quot;&gt;(master + slave&lt;/font&gt;&lt;span style=&quot;font-family: Arial; font-size: 22.58px; letter-spacing: 0px; background-color: initial;&quot;&gt;)&lt;/span&gt;&lt;/div&gt;" style="verticalAlign=bottom;align=center;overflow=width;vsdxID=6;fillColor=none;gradientColor=none;strokeColor=none;spacingTop=-3;spacingBottom=-3;spacingLeft=-3;spacingRight=-3;points=[];labelBackgroundColor=none;rounded=0;html=1;whiteSpace=wrap;container=0;" parent="LpiCmBX2S6yraUxqQmJm-133" vertex="1">
          <mxGeometry x="243.34968750000002" y="59.11000000000011" width="186.0909375" height="53.20999999999999" as="geometry" />
        </mxCell>
        <mxCell id="LpiCmBX2S6yraUxqQmJm-136" value="" style="shape=image;verticalLabelPosition=bottom;verticalAlign=top;imageAspect=0;aspect=fixed;image=data:image/svg+xml,PHN2ZyB4bWxucz0iaHR0cDovL3d3dy53My5vcmcvMjAwMC9zdmciIHdpZHRoPSIzMiIgaGVpZ2h0PSIzMiIgdmlld0JveD0iMCAwIDMyIDMyIiBmaWxsPSJub25lIj4mI3hhOzxwYXRoIGQ9Ik0wIDE2QzAgNy4xNjM0NCA3LjE2MzQ0IDAgMTYgMFYwQzI0LjgzNjYgMCAzMiA3LjE2MzQ0IDMyIDE2VjE2QzMyIDI0LjgzNjYgMjQuODM2NiAzMiAxNiAzMlYzMkM3LjE2MzQ0IDMyIDAgMjQuODM2NiAwIDE2VjE2WiIgZmlsbD0iIzUyODJGRiIvPiYjeGE7PHBhdGggZmlsbC1ydWxlPSJldmVub2RkIiBjbGlwLXJ1bGU9ImV2ZW5vZGQiIGQ9Ik0xMyA4SDE4QzIxLjMgOCAyNCAxMC43IDI0IDE0VjI0SDIwVjIwSDIyVjE5SDE4LjZDMTUuNSAxOSAxMyAxNi41IDEzIDEzLjRWOFpNMTkgMTdIMjFWMTVIMTlWMTdaTTEyIDkuMDk5OThWMTMuNEMxMiAxNi44IDE0LjYgMTkuNyAxOCAyMC4xVjIwLjZDMTggMjIgMTUuOCAyMy4xIDEzIDIzLjFDMTAuMiAyMy4xIDggMjIgOCAyMC42VjExLjZDOCAxMC4zIDkuNyA5LjI5OTk4IDEyIDkuMDk5OThaIiBmaWxsPSJ3aGl0ZSIvPiYjeGE7PC9zdmc+;container=0;" parent="LpiCmBX2S6yraUxqQmJm-133" vertex="1">
          <mxGeometry x="307.050046875" y="18.110000000000124" width="36.26923076923076" height="36.26923076923076" as="geometry" />
        </mxCell>
        <mxCell id="LpiCmBX2S6yraUxqQmJm-139" value="" style="shape=image;verticalLabelPosition=bottom;verticalAlign=top;imageAspect=0;aspect=fixed;image=data:image/svg+xml,PHN2ZyB4bWxucz0iaHR0cDovL3d3dy53My5vcmcvMjAwMC9zdmciIHdpZHRoPSIzMiIgaGVpZ2h0PSIzMiIgdmlld0JveD0iMCAwIDMyIDMyIiBmaWxsPSJub25lIj4mI3hhOzxwYXRoIGQ9Ik0wIDE2QzAgNy4xNjM0NCA3LjE2MzQ0IDAgMTYgMFYwQzI0LjgzNjYgMCAzMiA3LjE2MzQ0IDMyIDE2VjE2QzMyIDI0LjgzNjYgMjQuODM2NiAzMiAxNiAzMlYzMkM3LjE2MzQ0IDMyIDAgMjQuODM2NiAwIDE2VjE2WiIgZmlsbD0iIzUyODJGRiIvPiYjeGE7PHBhdGggZD0iTTI0IDE1VjEzSDIyVjExQzIyIDEwLjQgMjEuNiAxMCAyMSAxMEgxOVY4SDE3VjEwSDE1VjhIMTNWMTBIMTFDMTAuNCAxMCAxMCAxMC40IDEwIDExVjEzSDhWMTVIMTBWMTdIOFYxOUgxMFYyMUMxMCAyMS42IDEwLjQgMjIgMTEgMjJIMTNWMjRIMTVWMjJIMTdWMjRIMTlWMjJIMjFDMjEuNiAyMiAyMiAyMS42IDIyIDIxVjE5SDI0VjE3SDIyVjE1SDI0Wk0xOSAxOUgxM1YxM0gxOVYxOVoiIGZpbGw9IndoaXRlIi8+JiN4YTs8L3N2Zz4=;container=0;" parent="LpiCmBX2S6yraUxqQmJm-133" vertex="1">
          <mxGeometry x="55.190494545454534" y="85.10999999999999" width="25.090909090909083" height="25.090909090909083" as="geometry" />
        </mxCell>
        <mxCell id="LpiCmBX2S6yraUxqQmJm-140" value="&lt;div style=&quot;font-size: 1px&quot;&gt;&lt;font style=&quot;font-size:22.58px;font-family:Arial;color:#000000;direction:ltr;letter-spacing:0px;line-height:120%;opacity:1&quot;&gt;VM 1&lt;br&gt;&lt;/font&gt;&lt;/div&gt;" style="verticalAlign=middle;align=center;overflow=width;vsdxID=7;fillColor=none;gradientColor=none;shape=stencil(nZBLDoAgDERP0z3SIyjew0SURgSD+Lu9kMZoXLhwN9O+tukAlrNpJg1SzDH4QW/URgNYgZTkjA4UkwJUgGXng+6DX1zLfmoymdXo17xh5zmRJ6Q42BWCfc2oJfdAr+Yv+AP9Cb7OJ3H/2JG1HNGz/84klThPVCc=);strokeColor=none;points=[];labelBackgroundColor=none;rounded=0;html=1;whiteSpace=wrap;container=0;" parent="LpiCmBX2S6yraUxqQmJm-133" vertex="1">
          <mxGeometry x="12.35400909090906" y="19.999999999999993" width="133.54822636363636" height="45.889999999999986" as="geometry" />
        </mxCell>
        <mxCell id="LpiCmBX2S6yraUxqQmJm-119" style="edgeStyle=orthogonalEdgeStyle;rounded=0;orthogonalLoop=1;jettySize=auto;html=1;" parent="1" source="LpiCmBX2S6yraUxqQmJm-130" target="LpiCmBX2S6yraUxqQmJm-134" edge="1">
          <mxGeometry relative="1" as="geometry" />
        </mxCell>
        <mxCell id="LpiCmBX2S6yraUxqQmJm-120" value="TCP" style="edgeLabel;html=1;align=center;verticalAlign=middle;resizable=0;points=[];container=0;" parent="LpiCmBX2S6yraUxqQmJm-119" vertex="1" connectable="0">
          <mxGeometry x="-0.0566" y="2" relative="1" as="geometry">
            <mxPoint x="-1" y="-10" as="offset" />
          </mxGeometry>
        </mxCell>
        <mxCell id="LpiCmBX2S6yraUxqQmJm-121" value="" style="group" parent="1" vertex="1" connectable="0">
          <mxGeometry x="1037" y="428" width="178.6300000000001" height="130" as="geometry" />
        </mxCell>
        <mxCell id="LpiCmBX2S6yraUxqQmJm-122" style="vsdxID=5;fillColor=none;gradientColor=none;shape=stencil(vVPLEoIgFP0aljgEVuPa6j+YRGUica6U9vdhUKk4LWzG3X0cOPdcOIilTclrgShpDOiLaGVmSsQOiFJZlQKksRFiR8TSXIMoQN+qzOU175F9dNX3/obOnSP9CUoeLktIFL8KJ4flcLZN8NhtRJiDwxsf7VwhQHjAhniCDvNONhi04UbqakSuOBQCWy6cK16MWk0rRB2U/XRKVgMlSRwl+1nyhWI+s0+Xs4KYgNvPtlBKuJvVniX4En+9yfxWVpDx2yc2+Bosl0o5fw77U0PakjMzOz4B);strokeColor=#0D05FF;spacingTop=-3;spacingBottom=-3;spacingLeft=-3;spacingRight=-3;points=[];labelBackgroundColor=none;rounded=0;html=1;whiteSpace=wrap;container=0;" parent="LpiCmBX2S6yraUxqQmJm-121" vertex="1">
          <mxGeometry width="178.63" height="130" as="geometry" />
        </mxCell>
        <mxCell id="LpiCmBX2S6yraUxqQmJm-123" value="&lt;div style=&quot;&quot;&gt;&lt;font face=&quot;Arial&quot;&gt;&lt;span style=&quot;font-size: 22.58px;&quot;&gt;Балансировщик&lt;/span&gt;&lt;/font&gt;&lt;/div&gt;" style="verticalAlign=bottom;align=center;overflow=width;vsdxID=6;fillColor=none;gradientColor=none;strokeColor=none;spacingTop=-3;spacingBottom=-3;spacingLeft=-3;spacingRight=-3;points=[];labelBackgroundColor=none;rounded=0;html=1;whiteSpace=wrap;container=0;" parent="LpiCmBX2S6yraUxqQmJm-121" vertex="1">
          <mxGeometry y="67" width="178.63" height="53" as="geometry" />
        </mxCell>
        <mxCell id="LpiCmBX2S6yraUxqQmJm-124" value="" style="shape=image;verticalLabelPosition=bottom;labelBackgroundColor=#ffffff;verticalAlign=top;aspect=fixed;imageAspect=0;image=data:image/svg+xml,PHN2ZyB4bWxucz0iaHR0cDovL3d3dy53My5vcmcvMjAwMC9zdmciIHdpZHRoPSIzMiIgaGVpZ2h0PSIzMiIgdmlld0JveD0iMCAwIDMyIDMyIiBmaWxsPSJub25lIj4mI3hhOzxwYXRoIGQ9Ik0xNiAzMkMyNC44MzY2IDMyIDMyIDI0LjgzNjYgMzIgMTZDMzIgNy4xNjM0NCAyNC44MzY2IDAgMTYgMEM3LjE2MzQ0IDAgMCA3LjE2MzQ0IDAgMTZDMCAyNC44MzY2IDcuMTYzNDQgMzIgMTYgMzJaIiBmaWxsPSIjNTI4MkZGIi8+JiN4YTs8cGF0aCBmaWxsLXJ1bGU9ImV2ZW5vZGQiIGNsaXAtcnVsZT0iZXZlbm9kZCIgZD0iTTIzLjI0NjEgMjRWMjAuMDU1N0wyMS44Nzg3IDIxLjE0NjVMMTkuMjIyOSAxNy43NTU5QzE5LjU5MTUgMTcuMjU3NiAxOS44MDk0IDE2LjY0MSAxOS44MDk0IDE1Ljk3MzZDMTkuODA5NCAxNS44NDY0IDE5LjgwMTUgMTUuNzIxMSAxOS43ODYyIDE1LjU5ODFMMjEuMzgxOCAxNC45NzkxTDIyLjAxMzIgMTYuNjI0MUwyMy45OTk1IDEzLjIzMDVMMjAuMjUyNiAxMi4wMzc2TDIwLjg4IDEzLjY3MjFMMTkuMjkxNyAxNC4yODgzQzE4Ljc1MTkgMTMuNDk0OCAxNy44NDE1IDEyLjk3MzYgMTYuODA5NCAxMi45NzM2QzE2Ljc2NzggMTIuOTczNiAxNi43MjY0IDEyLjk3NDQgMTYuNjg1MiAxMi45NzYxTDE1LjkzNyAxMC43MDgyTDE3LjYyMDUgMTAuMTYxMkwxNC4zMzU0IDhMMTIuOTQ4MSAxMS42NzkzTDE0LjYwNTUgMTEuMTQwOEwxNS4zMzc1IDEzLjM1ODlDMTQuNjI3IDEzLjc1OTcgMTQuMDk2MyAxNC40NDE4IDEzLjg5NjMgMTUuMjUzOUwxMy44OTY2IDE1LjI1MjhMMTEuODcxMiAxNS4yNTI0QzExLjU4NzQgMTQuNDk0MSAxMC44NTYyIDEzLjk1NDMgOS45OTg5IDEzLjk1NDNDOC44OTUyMSAxMy45NTQzIDguMDAwNDkgMTQuODQ5IDguMDAwNDkgMTUuOTUyN0M4LjAwMDQ5IDE3LjA1NjQgOC44OTUyMSAxNy45NTExIDkuOTk4OSAxNy45NTExQzEwLjg1NjQgMTcuOTUxMSAxMS41ODc4IDE3LjQxMSAxMS44NzE0IDE2LjY1MjRMMTMuODg2NiAxNi42NTI4QzE0LjA0MDcgMTcuMzE4OSAxNC40MTY2IDE3Ljg5OTcgMTQuOTMyMyAxOC4zMTM5TDE0LjkzMTQgMTguMzEzM0wxNC4wMjkyIDIwLjA4MTFMMTIuNDczNiAxOS4yODU5TDEzLjI2MzEgMjMuMTM4TDE2Ljg0OCAyMS41MjIxTDE1LjI3NTggMjAuNzE4NEwxNi4xOTggMTguOTExM0wxNi4xOTcgMTguOTExMUMxNi4zOTQ3IDE4Ljk1MjEgMTYuNTk5NiAxOC45NzM2IDE2LjgwOTQgMTguOTczNkMxNy4yOTE2IDE4Ljk3MzYgMTcuNzQ3MiAxOC44NTk4IDE4LjE1MDkgMTguNjU3N0wyMC43ODQyIDIyLjAxOTVMMTkuNDA1NSAyMy4xMTkzTDIzLjI0NjEgMjRaTTE2LjgwOTQgMTQuMzczNkMxNy42OTMxIDE0LjM3MzYgMTguNDA5NCAxNS4wODk5IDE4LjQwOTQgMTUuOTczNkMxOC40MDk0IDE2Ljg1NzMgMTcuNjkzMSAxNy41NzM2IDE2LjgwOTQgMTcuNTczNkMxNS45MjU4IDE3LjU3MzYgMTUuMjA5NCAxNi44NTczIDE1LjIwOTQgMTUuOTczNkMxNS4yMDk0IDE1LjA4OTkgMTUuOTI1OCAxNC4zNzM2IDE2LjgwOTQgMTQuMzczNloiIGZpbGw9IndoaXRlIi8+JiN4YTs8L3N2Zz4=;" parent="LpiCmBX2S6yraUxqQmJm-121" vertex="1">
          <mxGeometry x="120" y="10" width="43.69" height="43.69" as="geometry" />
        </mxCell>
        <mxCell id="LpiCmBX2S6yraUxqQmJm-125" value="" style="shape=image;verticalLabelPosition=bottom;verticalAlign=top;imageAspect=0;aspect=fixed;image=data:image/svg+xml,PHN2ZyB4bWxucz0iaHR0cDovL3d3dy53My5vcmcvMjAwMC9zdmciIHdpZHRoPSIzMiIgaGVpZ2h0PSIzMiIgdmlld0JveD0iMCAwIDMyIDMyIiBmaWxsPSJub25lIj4mI3hhOzxwYXRoIGQ9Ik0wIDE2QzAgNy4xNjM0NCA3LjE2MzQ0IDAgMTYgMFYwQzI0LjgzNjYgMCAzMiA3LjE2MzQ0IDMyIDE2VjE2QzMyIDI0LjgzNjYgMjQuODM2NiAzMiAxNiAzMlYzMkM3LjE2MzQ0IDMyIDAgMjQuODM2NiAwIDE2VjE2WiIgZmlsbD0iIzUyODJGRiIvPiYjeGE7PHBhdGggZD0iTTExLjk5NSAyNEw3LjAwMDk4IDE3LjczOEw4Ljc4MTk4IDkuOTI3TDE2IDYuNDUzTDIzLjIxOCA5LjkyOEwyNC45OTkgMTcuNzM5TDIwLjAwNSAyNEgxMS45OTVaTTIwIDEzLjE5NkwxNS45OTkgMTAuODk5TDEyIDEzLjE5NlYxOC4xTDE2IDIwLjQwMUwyMCAxOC4xVjEzLjE5NlpNMTguNzggMTMuODk2SDE4Ljc4N0wxNiAxNS40OTlMMTMuMjE0IDEzLjg5NUgxMy4yMTlMMTUuOTk5IDEyLjI5OUwxOC43OCAxMy44OTZaIiBmaWxsPSJ3aGl0ZSIvPiYjeGE7PC9zdmc+;container=0;" parent="1" vertex="1">
          <mxGeometry x="961.2951515151515" y="738.3" width="27.69545454545455" height="27.69545454545455" as="geometry" />
        </mxCell>
        <mxCell id="LpiCmBX2S6yraUxqQmJm-126" value="&lt;div style=&quot;font-size: 1px&quot;&gt;&lt;font style=&quot;font-size:22.58px;font-family:Arial;color:#000000;direction:ltr;letter-spacing:0px;line-height:120%;opacity:1&quot;&gt;Kubernetes&lt;br&gt;&lt;/font&gt;&lt;/div&gt;&lt;div style=&quot;font-size: 1px&quot;&gt;&lt;font style=&quot;font-size:22.58px;font-family:Arial;color:#000000;direction:ltr;letter-spacing:0px;line-height:120%;opacity:1&quot;&gt;cluster 1&lt;/font&gt;&lt;/div&gt;" style="verticalAlign=middle;align=center;overflow=width;vsdxID=7;fillColor=none;gradientColor=none;shape=stencil(nZBLDoAgDERP0z3SIyjew0SURgSD+Lu9kMZoXLhwN9O+tukAlrNpJg1SzDH4QW/URgNYgZTkjA4UkwJUgGXng+6DX1zLfmoymdXo17xh5zmRJ6Q42BWCfc2oJfdAr+Yv+AP9Cb7OJ3H/2JG1HNGz/84klThPVCc=);strokeColor=none;points=[];labelBackgroundColor=none;rounded=0;html=1;whiteSpace=wrap;container=0;" parent="1" vertex="1">
          <mxGeometry x="926.9969696969697" y="640" width="116.36363636363637" height="86.13999999999999" as="geometry" />
        </mxCell>
        <mxCell id="LpiCmBX2S6yraUxqQmJm-127" value="" style="group" parent="1" vertex="1" connectable="0">
          <mxGeometry x="1090.3" y="618" width="130" height="100" as="geometry" />
        </mxCell>
        <mxCell id="LpiCmBX2S6yraUxqQmJm-128" style="vsdxID=5;fillColor=none;gradientColor=none;shape=stencil(vVPLEoIgFP0aljgEVuPa6j+YRGUica6U9vdhUKk4LWzG3X0cOPdcOIilTclrgShpDOiLaGVmSsQOiFJZlQKksRFiR8TSXIMoQN+qzOU175F9dNX3/obOnSP9CUoeLktIFL8KJ4flcLZN8NhtRJiDwxsf7VwhQHjAhniCDvNONhi04UbqakSuOBQCWy6cK16MWk0rRB2U/XRKVgMlSRwl+1nyhWI+s0+Xs4KYgNvPtlBKuJvVniX4En+9yfxWVpDx2yc2+Bosl0o5fw77U0PakjMzOz4B);strokeColor=#ff5958;spacingTop=-3;spacingBottom=-3;spacingLeft=-3;spacingRight=-3;points=[];labelBackgroundColor=none;rounded=0;html=1;whiteSpace=wrap;container=0;" parent="LpiCmBX2S6yraUxqQmJm-127" vertex="1">
          <mxGeometry width="130" height="100" as="geometry" />
        </mxCell>
        <mxCell id="LpiCmBX2S6yraUxqQmJm-129" value="" style="shape=image;verticalLabelPosition=bottom;verticalAlign=top;imageAspect=0;aspect=fixed;image=data:image/svg+xml,PHN2ZyB4bWxucz0iaHR0cDovL3d3dy53My5vcmcvMjAwMC9zdmciIHdpZHRoPSIzMiIgaGVpZ2h0PSIzMiIgdmlld0JveD0iMCAwIDMyIDMyIiBmaWxsPSJub25lIj4mI3hhOzxwYXRoIGQ9Ik0wIDE2QzAgNy4xNjM0NCA3LjE2MzQ0IDAgMTYgMFYwQzI0LjgzNjYgMCAzMiA3LjE2MzQ0IDMyIDE2VjE2QzMyIDI0LjgzNjYgMjQuODM2NiAzMiAxNiAzMlYzMkM3LjE2MzQ0IDMyIDAgMjQuODM2NiAwIDE2VjE2WiIgZmlsbD0iIzUyODJGRiIvPiYjeGE7PHBhdGggZD0iTTExLjk5NSAyNEw3LjAwMDk4IDE3LjczOEw4Ljc4MTk4IDkuOTI3TDE2IDYuNDUzTDIzLjIxOCA5LjkyOEwyNC45OTkgMTcuNzM5TDIwLjAwNSAyNEgxMS45OTVaTTIwIDEzLjE5NkwxNS45OTkgMTAuODk5TDEyIDEzLjE5NlYxOC4xTDE2IDIwLjQwMUwyMCAxOC4xVjEzLjE5NlpNMTguNzggMTMuODk2SDE4Ljc4N0wxNiAxNS40OTlMMTMuMjE0IDEzLjg5NUgxMy4yMTlMMTUuOTk5IDEyLjI5OUwxOC43OCAxMy44OTZaIiBmaWxsPSJ3aGl0ZSIvPiYjeGE7PC9zdmc+;container=0;" parent="LpiCmBX2S6yraUxqQmJm-127" vertex="1">
          <mxGeometry x="65" y="10" width="28.571428571428573" height="28.571428571428573" as="geometry" />
        </mxCell>
        <mxCell id="LpiCmBX2S6yraUxqQmJm-130" value="&lt;div style=&quot;font-size: 1px&quot;&gt;&lt;font style=&quot;font-size:22.58px;font-family:Arial;color:#000000;direction:ltr;letter-spacing:0px;line-height:120%;opacity:1&quot;&gt;InsureTech&lt;/font&gt;&lt;/div&gt;&lt;div style=&quot;font-size: 1px&quot;&gt;&lt;font style=&quot;font-size:22.58px;font-family:Arial;color:#000000;direction:ltr;letter-spacing:0px;line-height:120%;opacity:1&quot;&gt;namespace&lt;/font&gt;&lt;/div&gt;" style="verticalAlign=bottom;align=center;overflow=width;vsdxID=6;fillColor=none;gradientColor=none;strokeColor=none;spacingTop=-3;spacingBottom=-3;spacingLeft=-3;spacingRight=-3;points=[];labelBackgroundColor=none;rounded=0;html=1;whiteSpace=wrap;container=0;" parent="LpiCmBX2S6yraUxqQmJm-127" vertex="1">
          <mxGeometry y="40" width="130" height="54" as="geometry" />
        </mxCell>
        <mxCell id="LpiCmBX2S6yraUxqQmJm-131" style="edgeStyle=orthogonalEdgeStyle;rounded=0;orthogonalLoop=1;jettySize=auto;html=1;entryX=0.528;entryY=-0.006;entryDx=0;entryDy=0;entryPerimeter=0;" parent="1" source="LpiCmBX2S6yraUxqQmJm-123" target="LpiCmBX2S6yraUxqQmJm-128" edge="1">
          <mxGeometry relative="1" as="geometry" />
        </mxCell>
        <mxCell id="LpiCmBX2S6yraUxqQmJm-132" value="Heath Check" style="edgeLabel;html=1;align=center;verticalAlign=middle;resizable=0;points=[];" parent="LpiCmBX2S6yraUxqQmJm-131" vertex="1" connectable="0">
          <mxGeometry x="0.0659" y="-3" relative="1" as="geometry">
            <mxPoint as="offset" />
          </mxGeometry>
        </mxCell>
        <mxCell id="LpiCmBX2S6yraUxqQmJm-141" value="" style="group" parent="1" vertex="1" connectable="0">
          <mxGeometry x="1247" y="623" width="130" height="100" as="geometry" />
        </mxCell>
        <mxCell id="LpiCmBX2S6yraUxqQmJm-142" style="vsdxID=5;fillColor=none;gradientColor=none;shape=stencil(vVPLEoIgFP0aljgEVuPa6j+YRGUica6U9vdhUKk4LWzG3X0cOPdcOIilTclrgShpDOiLaGVmSsQOiFJZlQKksRFiR8TSXIMoQN+qzOU175F9dNX3/obOnSP9CUoeLktIFL8KJ4flcLZN8NhtRJiDwxsf7VwhQHjAhniCDvNONhi04UbqakSuOBQCWy6cK16MWk0rRB2U/XRKVgMlSRwl+1nyhWI+s0+Xs4KYgNvPtlBKuJvVniX4En+9yfxWVpDx2yc2+Bosl0o5fw77U0PakjMzOz4B);strokeColor=#ff5958;spacingTop=-3;spacingBottom=-3;spacingLeft=-3;spacingRight=-3;points=[];labelBackgroundColor=none;rounded=0;html=1;whiteSpace=wrap;container=0;" parent="LpiCmBX2S6yraUxqQmJm-141" vertex="1">
          <mxGeometry width="130" height="100" as="geometry" />
        </mxCell>
        <mxCell id="LpiCmBX2S6yraUxqQmJm-143" value="" style="shape=image;verticalLabelPosition=bottom;verticalAlign=top;imageAspect=0;aspect=fixed;image=data:image/svg+xml,PHN2ZyB4bWxucz0iaHR0cDovL3d3dy53My5vcmcvMjAwMC9zdmciIHdpZHRoPSIzMiIgaGVpZ2h0PSIzMiIgdmlld0JveD0iMCAwIDMyIDMyIiBmaWxsPSJub25lIj4mI3hhOzxwYXRoIGQ9Ik0wIDE2QzAgNy4xNjM0NCA3LjE2MzQ0IDAgMTYgMFYwQzI0LjgzNjYgMCAzMiA3LjE2MzQ0IDMyIDE2VjE2QzMyIDI0LjgzNjYgMjQuODM2NiAzMiAxNiAzMlYzMkM3LjE2MzQ0IDMyIDAgMjQuODM2NiAwIDE2VjE2WiIgZmlsbD0iIzUyODJGRiIvPiYjeGE7PHBhdGggZD0iTTExLjk5NSAyNEw3LjAwMDk4IDE3LjczOEw4Ljc4MTk4IDkuOTI3TDE2IDYuNDUzTDIzLjIxOCA5LjkyOEwyNC45OTkgMTcuNzM5TDIwLjAwNSAyNEgxMS45OTVaTTIwIDEzLjE5NkwxNS45OTkgMTAuODk5TDEyIDEzLjE5NlYxOC4xTDE2IDIwLjQwMUwyMCAxOC4xVjEzLjE5NlpNMTguNzggMTMuODk2SDE4Ljc4N0wxNiAxNS40OTlMMTMuMjE0IDEzLjg5NUgxMy4yMTlMMTUuOTk5IDEyLjI5OUwxOC43OCAxMy44OTZaIiBmaWxsPSJ3aGl0ZSIvPiYjeGE7PC9zdmc+;container=0;" parent="LpiCmBX2S6yraUxqQmJm-141" vertex="1">
          <mxGeometry x="65" y="10" width="28.571428571428573" height="28.571428571428573" as="geometry" />
        </mxCell>
        <mxCell id="LpiCmBX2S6yraUxqQmJm-144" value="&lt;div style=&quot;font-size: 1px&quot;&gt;&lt;font style=&quot;font-size:22.58px;font-family:Arial;color:#000000;direction:ltr;letter-spacing:0px;line-height:120%;opacity:1&quot;&gt;InsureTech&lt;/font&gt;&lt;/div&gt;&lt;div style=&quot;font-size: 1px&quot;&gt;&lt;font style=&quot;font-size:22.58px;font-family:Arial;color:#000000;direction:ltr;letter-spacing:0px;line-height:120%;opacity:1&quot;&gt;namespace&lt;/font&gt;&lt;/div&gt;" style="verticalAlign=bottom;align=center;overflow=width;vsdxID=6;fillColor=none;gradientColor=none;strokeColor=none;spacingTop=-3;spacingBottom=-3;spacingLeft=-3;spacingRight=-3;points=[];labelBackgroundColor=none;rounded=0;html=1;whiteSpace=wrap;container=0;" parent="LpiCmBX2S6yraUxqQmJm-141" vertex="1">
          <mxGeometry y="40" width="130" height="54" as="geometry" />
        </mxCell>
        <mxCell id="LpiCmBX2S6yraUxqQmJm-145" style="edgeStyle=orthogonalEdgeStyle;rounded=0;orthogonalLoop=1;jettySize=auto;html=1;entryX=0.5;entryY=-0.013;entryDx=0;entryDy=0;entryPerimeter=0;" parent="1" source="LpiCmBX2S6yraUxqQmJm-123" target="LpiCmBX2S6yraUxqQmJm-142" edge="1">
          <mxGeometry relative="1" as="geometry" />
        </mxCell>
        <mxCell id="LpiCmBX2S6yraUxqQmJm-146" value="Heath Check" style="edgeLabel;html=1;align=center;verticalAlign=middle;resizable=0;points=[];" parent="LpiCmBX2S6yraUxqQmJm-145" vertex="1" connectable="0">
          <mxGeometry x="0.2027" y="-2" relative="1" as="geometry">
            <mxPoint as="offset" />
          </mxGeometry>
        </mxCell>
        <mxCell id="LpiCmBX2S6yraUxqQmJm-147" style="edgeStyle=orthogonalEdgeStyle;rounded=0;orthogonalLoop=1;jettySize=auto;html=1;entryX=0.782;entryY=0.15;entryDx=0;entryDy=0;entryPerimeter=0;" parent="1" source="LpiCmBX2S6yraUxqQmJm-144" target="LpiCmBX2S6yraUxqQmJm-138" edge="1">
          <mxGeometry relative="1" as="geometry" />
        </mxCell>
        <mxCell id="LpiCmBX2S6yraUxqQmJm-148" value="TCP" style="edgeLabel;html=1;align=center;verticalAlign=middle;resizable=0;points=[];" parent="LpiCmBX2S6yraUxqQmJm-147" vertex="1" connectable="0">
          <mxGeometry x="-0.5212" y="-5" relative="1" as="geometry">
            <mxPoint as="offset" />
          </mxGeometry>
        </mxCell>
        <mxCell id="LpiCmBX2S6yraUxqQmJm-1" value="&lt;div style=&quot;font-size: 1px&quot;&gt;&lt;font style=&quot;font-size:22.58px;font-family:Arial;color:#000000;direction:ltr;letter-spacing:0px;line-height:120%;opacity:1&quot;&gt;Зона доступности 1&lt;br&gt;&lt;/font&gt;&lt;/div&gt;" style="verticalAlign=bottom;align=center;overflow=width;vsdxID=5;fillColor=#e3ebff;gradientColor=none;shape=stencil(vVNBDsIgEHwNRwxCjHqu+g9iaUtEaBa09fdSwdpi9dBDb8vOwOwsGcQyW/FaIEqsA3MRjcxdhdgBUSp1JUA6XyF2RCwrDIgSzE3n4VzzjtlVV3PvXmjDPdLdoOQRTrvtavNqnAKXw9mDELkBIhDJaxrJZIy/YRLfbjFvpcVgHHfS6JGu4lAK7GVwoXg5gmwjRP3VjoMpqQcm9tPKs0z0Y6crWcBHqt0PN8tJspXFfmNKdpaBH8tYwML/VPjiE6dCKhXSOMTT+PlWiC47PgE=);strokeColor=none;spacingTop=-3;spacingBottom=-3;spacingLeft=-3;spacingRight=-3;points=[];labelBackgroundColor=none;rounded=0;html=1;whiteSpace=wrap;container=0;" parent="1" vertex="1">
          <mxGeometry x="50" y="392" width="590" height="720" as="geometry" />
        </mxCell>
        <mxCell id="LpiCmBX2S6yraUxqQmJm-21" style="vsdxID=6;fillColor=none;gradientColor=none;shape=stencil(vVNdD4IgFP01POIQms1nq//BEpVF4q6U9u/DoFJxPdjm2/04cO65cBDL2oo3AlHSGtAX0cncVIgdEKWyrgRIYyPEjohlhQZRgr7VucsbPiCH6Krvww29O0eGE5Q8XJaSaPcqnByWw9k2wWNZRFMHhzc+SlwhQHhATDxBj3kvWwzacCN1PSFXHEqBLRcuFC8nrbYTognKfjol65GSNIn28SL5SjGf2efL2UBMwO1nWykl3M1mzxJ8ib/eZHkrG8j47RMbfA1WSKWcP8f9uSFtyZmZHZ8=);strokeColor=#5282ff;spacingTop=-3;spacingBottom=-3;spacingLeft=-3;spacingRight=-3;points=[];labelBackgroundColor=none;rounded=0;html=1;whiteSpace=wrap;container=0;" parent="1" vertex="1">
          <mxGeometry x="150.96" y="406" width="460" height="360" as="geometry" />
        </mxCell>
        <mxCell id="LpiCmBX2S6yraUxqQmJm-2" style="edgeStyle=orthogonalEdgeStyle;rounded=0;orthogonalLoop=1;jettySize=auto;html=1;" parent="1" source="LpiCmBX2S6yraUxqQmJm-7" target="LpiCmBX2S6yraUxqQmJm-8" edge="1">
          <mxGeometry relative="1" as="geometry" />
        </mxCell>
        <mxCell id="LpiCmBX2S6yraUxqQmJm-3" value="TCP" style="edgeLabel;html=1;align=center;verticalAlign=middle;resizable=0;points=[];container=0;" parent="LpiCmBX2S6yraUxqQmJm-2" vertex="1" connectable="0">
          <mxGeometry x="-0.0566" y="2" relative="1" as="geometry">
            <mxPoint x="-1" y="-10" as="offset" />
          </mxGeometry>
        </mxCell>
        <mxCell id="LpiCmBX2S6yraUxqQmJm-44" value="&lt;span style=&quot;color: rgba(0, 0, 0, 0.85); font-family: &amp;quot;YS Text&amp;quot;, sans-serif; font-size: 18px; white-space-collapse: preserve; background-color: rgb(255, 255, 255);&quot;&gt;Б&lt;/span&gt;&lt;span style=&quot;background-color: rgb(255, 255, 255); color: rgba(0, 0, 0, 0.85); font-family: &amp;quot;YS Text&amp;quot;, sans-serif; font-size: 18px; white-space-collapse: preserve;&quot;&gt;удут использоваться независимые кластеры в каждой площадке, для того чтобы запросы из разных регионов обрабатывались максимально быстро. Если будет происходить взаимодействие различных частей системы из разных кластеров, то накладные расходы на взаимодействие могут быть слишком большими.&lt;/span&gt;" style="whiteSpace=wrap;html=1;align=left;shadow=1;" parent="1" vertex="1">
          <mxGeometry x="1140" y="35" width="480" height="140" as="geometry" />
        </mxCell>
        <mxCell id="LpiCmBX2S6yraUxqQmJm-55" value="" style="group" parent="1" vertex="1" connectable="0">
          <mxGeometry x="260" y="415" width="178.6300000000001" height="130" as="geometry" />
        </mxCell>
        <mxCell id="LpiCmBX2S6yraUxqQmJm-53" style="vsdxID=5;fillColor=none;gradientColor=none;shape=stencil(vVPLEoIgFP0aljgEVuPa6j+YRGUica6U9vdhUKk4LWzG3X0cOPdcOIilTclrgShpDOiLaGVmSsQOiFJZlQKksRFiR8TSXIMoQN+qzOU175F9dNX3/obOnSP9CUoeLktIFL8KJ4flcLZN8NhtRJiDwxsf7VwhQHjAhniCDvNONhi04UbqakSuOBQCWy6cK16MWk0rRB2U/XRKVgMlSRwl+1nyhWI+s0+Xs4KYgNvPtlBKuJvVniX4En+9yfxWVpDx2yc2+Bosl0o5fw77U0PakjMzOz4B);strokeColor=#0D05FF;spacingTop=-3;spacingBottom=-3;spacingLeft=-3;spacingRight=-3;points=[];labelBackgroundColor=none;rounded=0;html=1;whiteSpace=wrap;container=0;" parent="LpiCmBX2S6yraUxqQmJm-55" vertex="1">
          <mxGeometry width="178.63" height="130" as="geometry" />
        </mxCell>
        <mxCell id="LpiCmBX2S6yraUxqQmJm-54" value="&lt;div style=&quot;&quot;&gt;&lt;font face=&quot;Arial&quot;&gt;&lt;span style=&quot;font-size: 22.58px;&quot;&gt;Балансировщик&lt;/span&gt;&lt;/font&gt;&lt;/div&gt;" style="verticalAlign=bottom;align=center;overflow=width;vsdxID=6;fillColor=none;gradientColor=none;strokeColor=none;spacingTop=-3;spacingBottom=-3;spacingLeft=-3;spacingRight=-3;points=[];labelBackgroundColor=none;rounded=0;html=1;whiteSpace=wrap;container=0;" parent="LpiCmBX2S6yraUxqQmJm-55" vertex="1">
          <mxGeometry y="67" width="178.63" height="53" as="geometry" />
        </mxCell>
        <mxCell id="LpiCmBX2S6yraUxqQmJm-46" value="" style="shape=image;verticalLabelPosition=bottom;labelBackgroundColor=#ffffff;verticalAlign=top;aspect=fixed;imageAspect=0;image=data:image/svg+xml,PHN2ZyB4bWxucz0iaHR0cDovL3d3dy53My5vcmcvMjAwMC9zdmciIHdpZHRoPSIzMiIgaGVpZ2h0PSIzMiIgdmlld0JveD0iMCAwIDMyIDMyIiBmaWxsPSJub25lIj4mI3hhOzxwYXRoIGQ9Ik0xNiAzMkMyNC44MzY2IDMyIDMyIDI0LjgzNjYgMzIgMTZDMzIgNy4xNjM0NCAyNC44MzY2IDAgMTYgMEM3LjE2MzQ0IDAgMCA3LjE2MzQ0IDAgMTZDMCAyNC44MzY2IDcuMTYzNDQgMzIgMTYgMzJaIiBmaWxsPSIjNTI4MkZGIi8+JiN4YTs8cGF0aCBmaWxsLXJ1bGU9ImV2ZW5vZGQiIGNsaXAtcnVsZT0iZXZlbm9kZCIgZD0iTTIzLjI0NjEgMjRWMjAuMDU1N0wyMS44Nzg3IDIxLjE0NjVMMTkuMjIyOSAxNy43NTU5QzE5LjU5MTUgMTcuMjU3NiAxOS44MDk0IDE2LjY0MSAxOS44MDk0IDE1Ljk3MzZDMTkuODA5NCAxNS44NDY0IDE5LjgwMTUgMTUuNzIxMSAxOS43ODYyIDE1LjU5ODFMMjEuMzgxOCAxNC45NzkxTDIyLjAxMzIgMTYuNjI0MUwyMy45OTk1IDEzLjIzMDVMMjAuMjUyNiAxMi4wMzc2TDIwLjg4IDEzLjY3MjFMMTkuMjkxNyAxNC4yODgzQzE4Ljc1MTkgMTMuNDk0OCAxNy44NDE1IDEyLjk3MzYgMTYuODA5NCAxMi45NzM2QzE2Ljc2NzggMTIuOTczNiAxNi43MjY0IDEyLjk3NDQgMTYuNjg1MiAxMi45NzYxTDE1LjkzNyAxMC43MDgyTDE3LjYyMDUgMTAuMTYxMkwxNC4zMzU0IDhMMTIuOTQ4MSAxMS42NzkzTDE0LjYwNTUgMTEuMTQwOEwxNS4zMzc1IDEzLjM1ODlDMTQuNjI3IDEzLjc1OTcgMTQuMDk2MyAxNC40NDE4IDEzLjg5NjMgMTUuMjUzOUwxMy44OTY2IDE1LjI1MjhMMTEuODcxMiAxNS4yNTI0QzExLjU4NzQgMTQuNDk0MSAxMC44NTYyIDEzLjk1NDMgOS45OTg5IDEzLjk1NDNDOC44OTUyMSAxMy45NTQzIDguMDAwNDkgMTQuODQ5IDguMDAwNDkgMTUuOTUyN0M4LjAwMDQ5IDE3LjA1NjQgOC44OTUyMSAxNy45NTExIDkuOTk4OSAxNy45NTExQzEwLjg1NjQgMTcuOTUxMSAxMS41ODc4IDE3LjQxMSAxMS44NzE0IDE2LjY1MjRMMTMuODg2NiAxNi42NTI4QzE0LjA0MDcgMTcuMzE4OSAxNC40MTY2IDE3Ljg5OTcgMTQuOTMyMyAxOC4zMTM5TDE0LjkzMTQgMTguMzEzM0wxNC4wMjkyIDIwLjA4MTFMMTIuNDczNiAxOS4yODU5TDEzLjI2MzEgMjMuMTM4TDE2Ljg0OCAyMS41MjIxTDE1LjI3NTggMjAuNzE4NEwxNi4xOTggMTguOTExM0wxNi4xOTcgMTguOTExMUMxNi4zOTQ3IDE4Ljk1MjEgMTYuNTk5NiAxOC45NzM2IDE2LjgwOTQgMTguOTczNkMxNy4yOTE2IDE4Ljk3MzYgMTcuNzQ3MiAxOC44NTk4IDE4LjE1MDkgMTguNjU3N0wyMC43ODQyIDIyLjAxOTVMMTkuNDA1NSAyMy4xMTkzTDIzLjI0NjEgMjRaTTE2LjgwOTQgMTQuMzczNkMxNy42OTMxIDE0LjM3MzYgMTguNDA5NCAxNS4wODk5IDE4LjQwOTQgMTUuOTczNkMxOC40MDk0IDE2Ljg1NzMgMTcuNjkzMSAxNy41NzM2IDE2LjgwOTQgMTcuNTczNkMxNS45MjU4IDE3LjU3MzYgMTUuMjA5NCAxNi44NTczIDE1LjIwOTQgMTUuOTczNkMxNS4yMDk0IDE1LjA4OTkgMTUuOTI1OCAxNC4zNzM2IDE2LjgwOTQgMTQuMzczNloiIGZpbGw9IndoaXRlIi8+JiN4YTs8L3N2Zz4=;" parent="LpiCmBX2S6yraUxqQmJm-55" vertex="1">
          <mxGeometry x="120" y="10" width="43.69" height="43.69" as="geometry" />
        </mxCell>
        <mxCell id="LpiCmBX2S6yraUxqQmJm-56" value="" style="group" parent="1" vertex="1" connectable="0">
          <mxGeometry x="550" y="218" width="178.6300000000001" height="130" as="geometry" />
        </mxCell>
        <mxCell id="LpiCmBX2S6yraUxqQmJm-57" style="vsdxID=5;fillColor=none;gradientColor=none;shape=stencil(vVPLEoIgFP0aljgEVuPa6j+YRGUica6U9vdhUKk4LWzG3X0cOPdcOIilTclrgShpDOiLaGVmSsQOiFJZlQKksRFiR8TSXIMoQN+qzOU175F9dNX3/obOnSP9CUoeLktIFL8KJ4flcLZN8NhtRJiDwxsf7VwhQHjAhniCDvNONhi04UbqakSuOBQCWy6cK16MWk0rRB2U/XRKVgMlSRwl+1nyhWI+s0+Xs4KYgNvPtlBKuJvVniX4En+9yfxWVpDx2yc2+Bosl0o5fw77U0PakjMzOz4B);strokeColor=#0D05FF;spacingTop=-3;spacingBottom=-3;spacingLeft=-3;spacingRight=-3;points=[];labelBackgroundColor=none;rounded=0;html=1;whiteSpace=wrap;container=0;" parent="LpiCmBX2S6yraUxqQmJm-56" vertex="1">
          <mxGeometry width="178.63" height="130" as="geometry" />
        </mxCell>
        <mxCell id="LpiCmBX2S6yraUxqQmJm-58" value="&lt;div style=&quot;&quot;&gt;&lt;font face=&quot;Arial&quot;&gt;&lt;span style=&quot;font-size: 22.58px;&quot;&gt;Балансировщик&lt;/span&gt;&lt;/font&gt;&lt;/div&gt;" style="verticalAlign=bottom;align=center;overflow=width;vsdxID=6;fillColor=none;gradientColor=none;strokeColor=none;spacingTop=-3;spacingBottom=-3;spacingLeft=-3;spacingRight=-3;points=[];labelBackgroundColor=none;rounded=0;html=1;whiteSpace=wrap;container=0;" parent="LpiCmBX2S6yraUxqQmJm-56" vertex="1">
          <mxGeometry y="67" width="178.63" height="53" as="geometry" />
        </mxCell>
        <mxCell id="LpiCmBX2S6yraUxqQmJm-59" value="" style="shape=image;verticalLabelPosition=bottom;labelBackgroundColor=#ffffff;verticalAlign=top;aspect=fixed;imageAspect=0;image=data:image/svg+xml,PHN2ZyB4bWxucz0iaHR0cDovL3d3dy53My5vcmcvMjAwMC9zdmciIHdpZHRoPSIzMiIgaGVpZ2h0PSIzMiIgdmlld0JveD0iMCAwIDMyIDMyIiBmaWxsPSJub25lIj4mI3hhOzxwYXRoIGQ9Ik0xNiAzMkMyNC44MzY2IDMyIDMyIDI0LjgzNjYgMzIgMTZDMzIgNy4xNjM0NCAyNC44MzY2IDAgMTYgMEM3LjE2MzQ0IDAgMCA3LjE2MzQ0IDAgMTZDMCAyNC44MzY2IDcuMTYzNDQgMzIgMTYgMzJaIiBmaWxsPSIjNTI4MkZGIi8+JiN4YTs8cGF0aCBmaWxsLXJ1bGU9ImV2ZW5vZGQiIGNsaXAtcnVsZT0iZXZlbm9kZCIgZD0iTTIzLjI0NjEgMjRWMjAuMDU1N0wyMS44Nzg3IDIxLjE0NjVMMTkuMjIyOSAxNy43NTU5QzE5LjU5MTUgMTcuMjU3NiAxOS44MDk0IDE2LjY0MSAxOS44MDk0IDE1Ljk3MzZDMTkuODA5NCAxNS44NDY0IDE5LjgwMTUgMTUuNzIxMSAxOS43ODYyIDE1LjU5ODFMMjEuMzgxOCAxNC45NzkxTDIyLjAxMzIgMTYuNjI0MUwyMy45OTk1IDEzLjIzMDVMMjAuMjUyNiAxMi4wMzc2TDIwLjg4IDEzLjY3MjFMMTkuMjkxNyAxNC4yODgzQzE4Ljc1MTkgMTMuNDk0OCAxNy44NDE1IDEyLjk3MzYgMTYuODA5NCAxMi45NzM2QzE2Ljc2NzggMTIuOTczNiAxNi43MjY0IDEyLjk3NDQgMTYuNjg1MiAxMi45NzYxTDE1LjkzNyAxMC43MDgyTDE3LjYyMDUgMTAuMTYxMkwxNC4zMzU0IDhMMTIuOTQ4MSAxMS42NzkzTDE0LjYwNTUgMTEuMTQwOEwxNS4zMzc1IDEzLjM1ODlDMTQuNjI3IDEzLjc1OTcgMTQuMDk2MyAxNC40NDE4IDEzLjg5NjMgMTUuMjUzOUwxMy44OTY2IDE1LjI1MjhMMTEuODcxMiAxNS4yNTI0QzExLjU4NzQgMTQuNDk0MSAxMC44NTYyIDEzLjk1NDMgOS45OTg5IDEzLjk1NDNDOC44OTUyMSAxMy45NTQzIDguMDAwNDkgMTQuODQ5IDguMDAwNDkgMTUuOTUyN0M4LjAwMDQ5IDE3LjA1NjQgOC44OTUyMSAxNy45NTExIDkuOTk4OSAxNy45NTExQzEwLjg1NjQgMTcuOTUxMSAxMS41ODc4IDE3LjQxMSAxMS44NzE0IDE2LjY1MjRMMTMuODg2NiAxNi42NTI4QzE0LjA0MDcgMTcuMzE4OSAxNC40MTY2IDE3Ljg5OTcgMTQuOTMyMyAxOC4zMTM5TDE0LjkzMTQgMTguMzEzM0wxNC4wMjkyIDIwLjA4MTFMMTIuNDczNiAxOS4yODU5TDEzLjI2MzEgMjMuMTM4TDE2Ljg0OCAyMS41MjIxTDE1LjI3NTggMjAuNzE4NEwxNi4xOTggMTguOTExM0wxNi4xOTcgMTguOTExMUMxNi4zOTQ3IDE4Ljk1MjEgMTYuNTk5NiAxOC45NzM2IDE2LjgwOTQgMTguOTczNkMxNy4yOTE2IDE4Ljk3MzYgMTcuNzQ3MiAxOC44NTk4IDE4LjE1MDkgMTguNjU3N0wyMC43ODQyIDIyLjAxOTVMMTkuNDA1NSAyMy4xMTkzTDIzLjI0NjEgMjRaTTE2LjgwOTQgMTQuMzczNkMxNy42OTMxIDE0LjM3MzYgMTguNDA5NCAxNS4wODk5IDE4LjQwOTQgMTUuOTczNkMxOC40MDk0IDE2Ljg1NzMgMTcuNjkzMSAxNy41NzM2IDE2LjgwOTQgMTcuNTczNkMxNS45MjU4IDE3LjU3MzYgMTUuMjA5NCAxNi44NTczIDE1LjIwOTQgMTUuOTczNkMxNS4yMDk0IDE1LjA4OTkgMTUuOTI1OCAxNC4zNzM2IDE2LjgwOTQgMTQuMzczNloiIGZpbGw9IndoaXRlIi8+JiN4YTs8L3N2Zz4=;" parent="LpiCmBX2S6yraUxqQmJm-56" vertex="1">
          <mxGeometry x="120" y="10" width="43.69" height="43.69" as="geometry" />
        </mxCell>
        <mxCell id="LpiCmBX2S6yraUxqQmJm-19" value="" style="shape=image;verticalLabelPosition=bottom;verticalAlign=top;imageAspect=0;aspect=fixed;image=data:image/svg+xml,PHN2ZyB4bWxucz0iaHR0cDovL3d3dy53My5vcmcvMjAwMC9zdmciIHdpZHRoPSIzMiIgaGVpZ2h0PSIzMiIgdmlld0JveD0iMCAwIDMyIDMyIiBmaWxsPSJub25lIj4mI3hhOzxwYXRoIGQ9Ik0wIDE2QzAgNy4xNjM0NCA3LjE2MzQ0IDAgMTYgMFYwQzI0LjgzNjYgMCAzMiA3LjE2MzQ0IDMyIDE2VjE2QzMyIDI0LjgzNjYgMjQuODM2NiAzMiAxNiAzMlYzMkM3LjE2MzQ0IDMyIDAgMjQuODM2NiAwIDE2VjE2WiIgZmlsbD0iIzUyODJGRiIvPiYjeGE7PHBhdGggZD0iTTExLjk5NSAyNEw3LjAwMDk4IDE3LjczOEw4Ljc4MTk4IDkuOTI3TDE2IDYuNDUzTDIzLjIxOCA5LjkyOEwyNC45OTkgMTcuNzM5TDIwLjAwNSAyNEgxMS45OTVaTTIwIDEzLjE5NkwxNS45OTkgMTAuODk5TDEyIDEzLjE5NlYxOC4xTDE2IDIwLjQwMUwyMCAxOC4xVjEzLjE5NlpNMTguNzggMTMuODk2SDE4Ljc4N0wxNiAxNS40OTlMMTMuMjE0IDEzLjg5NUgxMy4yMTlMMTUuOTk5IDEyLjI5OUwxOC43OCAxMy44OTZaIiBmaWxsPSJ3aGl0ZSIvPiYjeGE7PC9zdmc+;container=0;" parent="1" vertex="1">
          <mxGeometry x="184.29515151515153" y="725.3" width="27.69545454545455" height="27.69545454545455" as="geometry" />
        </mxCell>
        <mxCell id="LpiCmBX2S6yraUxqQmJm-20" value="&lt;div style=&quot;font-size: 1px&quot;&gt;&lt;font style=&quot;font-size:22.58px;font-family:Arial;color:#000000;direction:ltr;letter-spacing:0px;line-height:120%;opacity:1&quot;&gt;Kubernetes&lt;br&gt;&lt;/font&gt;&lt;/div&gt;&lt;div style=&quot;font-size: 1px&quot;&gt;&lt;font style=&quot;font-size:22.58px;font-family:Arial;color:#000000;direction:ltr;letter-spacing:0px;line-height:120%;opacity:1&quot;&gt;cluster 1&lt;/font&gt;&lt;/div&gt;" style="verticalAlign=middle;align=center;overflow=width;vsdxID=7;fillColor=none;gradientColor=none;shape=stencil(nZBLDoAgDERP0z3SIyjew0SURgSD+Lu9kMZoXLhwN9O+tukAlrNpJg1SzDH4QW/URgNYgZTkjA4UkwJUgGXng+6DX1zLfmoymdXo17xh5zmRJ6Q42BWCfc2oJfdAr+Yv+AP9Cb7OJ3H/2JG1HNGz/84klThPVCc=);strokeColor=none;points=[];labelBackgroundColor=none;rounded=0;html=1;whiteSpace=wrap;container=0;" parent="1" vertex="1">
          <mxGeometry x="149.9969696969697" y="627" width="116.36363636363637" height="86.13999999999999" as="geometry" />
        </mxCell>
        <mxCell id="LpiCmBX2S6yraUxqQmJm-68" value="" style="group" parent="1" vertex="1" connectable="0">
          <mxGeometry x="313.3" y="605" width="130" height="100" as="geometry" />
        </mxCell>
        <mxCell id="LpiCmBX2S6yraUxqQmJm-6" style="vsdxID=5;fillColor=none;gradientColor=none;shape=stencil(vVPLEoIgFP0aljgEVuPa6j+YRGUica6U9vdhUKk4LWzG3X0cOPdcOIilTclrgShpDOiLaGVmSsQOiFJZlQKksRFiR8TSXIMoQN+qzOU175F9dNX3/obOnSP9CUoeLktIFL8KJ4flcLZN8NhtRJiDwxsf7VwhQHjAhniCDvNONhi04UbqakSuOBQCWy6cK16MWk0rRB2U/XRKVgMlSRwl+1nyhWI+s0+Xs4KYgNvPtlBKuJvVniX4En+9yfxWVpDx2yc2+Bosl0o5fw77U0PakjMzOz4B);strokeColor=#ff5958;spacingTop=-3;spacingBottom=-3;spacingLeft=-3;spacingRight=-3;points=[];labelBackgroundColor=none;rounded=0;html=1;whiteSpace=wrap;container=0;" parent="LpiCmBX2S6yraUxqQmJm-68" vertex="1">
          <mxGeometry width="130" height="100" as="geometry" />
        </mxCell>
        <mxCell id="LpiCmBX2S6yraUxqQmJm-5" value="" style="shape=image;verticalLabelPosition=bottom;verticalAlign=top;imageAspect=0;aspect=fixed;image=data:image/svg+xml,PHN2ZyB4bWxucz0iaHR0cDovL3d3dy53My5vcmcvMjAwMC9zdmciIHdpZHRoPSIzMiIgaGVpZ2h0PSIzMiIgdmlld0JveD0iMCAwIDMyIDMyIiBmaWxsPSJub25lIj4mI3hhOzxwYXRoIGQ9Ik0wIDE2QzAgNy4xNjM0NCA3LjE2MzQ0IDAgMTYgMFYwQzI0LjgzNjYgMCAzMiA3LjE2MzQ0IDMyIDE2VjE2QzMyIDI0LjgzNjYgMjQuODM2NiAzMiAxNiAzMlYzMkM3LjE2MzQ0IDMyIDAgMjQuODM2NiAwIDE2VjE2WiIgZmlsbD0iIzUyODJGRiIvPiYjeGE7PHBhdGggZD0iTTExLjk5NSAyNEw3LjAwMDk4IDE3LjczOEw4Ljc4MTk4IDkuOTI3TDE2IDYuNDUzTDIzLjIxOCA5LjkyOEwyNC45OTkgMTcuNzM5TDIwLjAwNSAyNEgxMS45OTVaTTIwIDEzLjE5NkwxNS45OTkgMTAuODk5TDEyIDEzLjE5NlYxOC4xTDE2IDIwLjQwMUwyMCAxOC4xVjEzLjE5NlpNMTguNzggMTMuODk2SDE4Ljc4N0wxNiAxNS40OTlMMTMuMjE0IDEzLjg5NUgxMy4yMTlMMTUuOTk5IDEyLjI5OUwxOC43OCAxMy44OTZaIiBmaWxsPSJ3aGl0ZSIvPiYjeGE7PC9zdmc+;container=0;" parent="LpiCmBX2S6yraUxqQmJm-68" vertex="1">
          <mxGeometry x="65" y="10" width="28.571428571428573" height="28.571428571428573" as="geometry" />
        </mxCell>
        <mxCell id="LpiCmBX2S6yraUxqQmJm-7" value="&lt;div style=&quot;font-size: 1px&quot;&gt;&lt;font style=&quot;font-size:22.58px;font-family:Arial;color:#000000;direction:ltr;letter-spacing:0px;line-height:120%;opacity:1&quot;&gt;InsureTech&lt;/font&gt;&lt;/div&gt;&lt;div style=&quot;font-size: 1px&quot;&gt;&lt;font style=&quot;font-size:22.58px;font-family:Arial;color:#000000;direction:ltr;letter-spacing:0px;line-height:120%;opacity:1&quot;&gt;namespace&lt;/font&gt;&lt;/div&gt;" style="verticalAlign=bottom;align=center;overflow=width;vsdxID=6;fillColor=none;gradientColor=none;strokeColor=none;spacingTop=-3;spacingBottom=-3;spacingLeft=-3;spacingRight=-3;points=[];labelBackgroundColor=none;rounded=0;html=1;whiteSpace=wrap;container=0;" parent="LpiCmBX2S6yraUxqQmJm-68" vertex="1">
          <mxGeometry y="40" width="130" height="54" as="geometry" />
        </mxCell>
        <mxCell id="LpiCmBX2S6yraUxqQmJm-70" style="edgeStyle=orthogonalEdgeStyle;rounded=0;orthogonalLoop=1;jettySize=auto;html=1;entryX=0.479;entryY=0.001;entryDx=0;entryDy=0;entryPerimeter=0;" parent="1" source="LpiCmBX2S6yraUxqQmJm-57" target="LpiCmBX2S6yraUxqQmJm-53" edge="1">
          <mxGeometry relative="1" as="geometry" />
        </mxCell>
        <mxCell id="LpiCmBX2S6yraUxqQmJm-100" value="Heath Check" style="edgeLabel;html=1;align=center;verticalAlign=middle;resizable=0;points=[];" parent="LpiCmBX2S6yraUxqQmJm-70" vertex="1" connectable="0">
          <mxGeometry x="-0.0996" y="-2" relative="1" as="geometry">
            <mxPoint as="offset" />
          </mxGeometry>
        </mxCell>
        <mxCell id="LpiCmBX2S6yraUxqQmJm-72" value="" style="group" parent="1" vertex="1" connectable="0">
          <mxGeometry x="151.93" y="790" width="458.07000000000005" height="133.71" as="geometry" />
        </mxCell>
        <mxCell id="LpiCmBX2S6yraUxqQmJm-15" style="vsdxID=6;fillColor=none;gradientColor=none;shape=stencil(vVNdD4IgFP01POIQms1nq//BEpVF4q6U9u/DoFJxPdjm2/04cO65cBDL2oo3AlHSGtAX0cncVIgdEKWyrgRIYyPEjohlhQZRgr7VucsbPiCH6Krvww29O0eGE5Q8XJaSaPcqnByWw9k2wWNZRFMHhzc+SlwhQHhATDxBj3kvWwzacCN1PSFXHEqBLRcuFC8nrbYTognKfjol65GSNIn28SL5SjGf2efL2UBMwO1nWykl3M1mzxJ8ib/eZHkrG8j47RMbfA1WSKWcP8f9uSFtyZmZHZ8=);strokeColor=#5282ff;spacingTop=-3;spacingBottom=-3;spacingLeft=-3;spacingRight=-3;points=[];labelBackgroundColor=none;rounded=0;html=1;whiteSpace=wrap;container=0;" parent="LpiCmBX2S6yraUxqQmJm-72" vertex="1">
          <mxGeometry width="458.07000000000005" height="133.70999999999995" as="geometry" />
        </mxCell>
        <mxCell id="LpiCmBX2S6yraUxqQmJm-8" style="vsdxID=5;fillColor=none;gradientColor=none;shape=stencil(vVPLEoIgFP0aljgEVuPa6j+YRGUica6U9vdhUKk4LWzG3X0cOPdcOIilTclrgShpDOiLaGVmSsQOiFJZlQKksRFiR8TSXIMoQN+qzOU175F9dNX3/obOnSP9CUoeLktIFL8KJ4flcLZN8NhtRJiDwxsf7VwhQHjAhniCDvNONhi04UbqakSuOBQCWy6cK16MWk0rRB2U/XRKVgMlSRwl+1nyhWI+s0+Xs4KYgNvPtlBKuJvVniX4En+9yfxWVpDx2yc2+Bosl0o5fw77U0PakjMzOz4B);strokeColor=#ff5958;spacingTop=-3;spacingBottom=-3;spacingLeft=-3;spacingRight=-3;points=[];labelBackgroundColor=none;rounded=0;html=1;whiteSpace=wrap;container=0;" parent="LpiCmBX2S6yraUxqQmJm-72" vertex="1">
          <mxGeometry x="145.9" y="14.1" width="194.1" height="105.5" as="geometry" />
        </mxCell>
        <mxCell id="LpiCmBX2S6yraUxqQmJm-9" value="&lt;div style=&quot;font-size: 1px&quot;&gt;&lt;font style=&quot;font-size:22.58px;font-family:Arial;color:#000000;direction:ltr;letter-spacing:0px;line-height:120%;opacity:1&quot;&gt;PosrgreSQL&lt;br&gt;&lt;/font&gt;&lt;/div&gt;&lt;div style=&quot;font-size: 1px&quot;&gt;&lt;font style=&quot;font-size:22.58px;font-family:Arial;color:#000000;direction:ltr;letter-spacing:0px;line-height:120%;opacity:1&quot;&gt;(master + slave)&lt;/font&gt;&lt;/div&gt;" style="verticalAlign=bottom;align=center;overflow=width;vsdxID=6;fillColor=none;gradientColor=none;strokeColor=none;spacingTop=-3;spacingBottom=-3;spacingLeft=-3;spacingRight=-3;points=[];labelBackgroundColor=none;rounded=0;html=1;whiteSpace=wrap;container=0;" parent="LpiCmBX2S6yraUxqQmJm-72" vertex="1">
          <mxGeometry x="145.89968750000003" y="59.100000000000115" width="186.0909375" height="53.20999999999999" as="geometry" />
        </mxCell>
        <mxCell id="LpiCmBX2S6yraUxqQmJm-10" value="" style="shape=image;verticalLabelPosition=bottom;verticalAlign=top;imageAspect=0;aspect=fixed;image=data:image/svg+xml,PHN2ZyB4bWxucz0iaHR0cDovL3d3dy53My5vcmcvMjAwMC9zdmciIHdpZHRoPSIzMiIgaGVpZ2h0PSIzMiIgdmlld0JveD0iMCAwIDMyIDMyIiBmaWxsPSJub25lIj4mI3hhOzxwYXRoIGQ9Ik0wIDE2QzAgNy4xNjM0NCA3LjE2MzQ0IDAgMTYgMFYwQzI0LjgzNjYgMCAzMiA3LjE2MzQ0IDMyIDE2VjE2QzMyIDI0LjgzNjYgMjQuODM2NiAzMiAxNiAzMlYzMkM3LjE2MzQ0IDMyIDAgMjQuODM2NiAwIDE2VjE2WiIgZmlsbD0iIzUyODJGRiIvPiYjeGE7PHBhdGggZmlsbC1ydWxlPSJldmVub2RkIiBjbGlwLXJ1bGU9ImV2ZW5vZGQiIGQ9Ik0xMyA4SDE4QzIxLjMgOCAyNCAxMC43IDI0IDE0VjI0SDIwVjIwSDIyVjE5SDE4LjZDMTUuNSAxOSAxMyAxNi41IDEzIDEzLjRWOFpNMTkgMTdIMjFWMTVIMTlWMTdaTTEyIDkuMDk5OThWMTMuNEMxMiAxNi44IDE0LjYgMTkuNyAxOCAyMC4xVjIwLjZDMTggMjIgMTUuOCAyMy4xIDEzIDIzLjFDMTAuMiAyMy4xIDggMjIgOCAyMC42VjExLjZDOCAxMC4zIDkuNyA5LjI5OTk4IDEyIDkuMDk5OThaIiBmaWxsPSJ3aGl0ZSIvPiYjeGE7PC9zdmc+;container=0;" parent="LpiCmBX2S6yraUxqQmJm-72" vertex="1">
          <mxGeometry x="209.60004687500003" y="18.100000000000122" width="36.26923076923076" height="36.26923076923076" as="geometry" />
        </mxCell>
        <mxCell id="LpiCmBX2S6yraUxqQmJm-16" value="" style="shape=image;verticalLabelPosition=bottom;verticalAlign=top;imageAspect=0;aspect=fixed;image=data:image/svg+xml,PHN2ZyB4bWxucz0iaHR0cDovL3d3dy53My5vcmcvMjAwMC9zdmciIHdpZHRoPSIzMiIgaGVpZ2h0PSIzMiIgdmlld0JveD0iMCAwIDMyIDMyIiBmaWxsPSJub25lIj4mI3hhOzxwYXRoIGQ9Ik0wIDE2QzAgNy4xNjM0NCA3LjE2MzQ0IDAgMTYgMFYwQzI0LjgzNjYgMCAzMiA3LjE2MzQ0IDMyIDE2VjE2QzMyIDI0LjgzNjYgMjQuODM2NiAzMiAxNiAzMlYzMkM3LjE2MzQ0IDMyIDAgMjQuODM2NiAwIDE2VjE2WiIgZmlsbD0iIzUyODJGRiIvPiYjeGE7PHBhdGggZD0iTTI0IDE1VjEzSDIyVjExQzIyIDEwLjQgMjEuNiAxMCAyMSAxMEgxOVY4SDE3VjEwSDE1VjhIMTNWMTBIMTFDMTAuNCAxMCAxMCAxMC40IDEwIDExVjEzSDhWMTVIMTBWMTdIOFYxOUgxMFYyMUMxMCAyMS42IDEwLjQgMjIgMTEgMjJIMTNWMjRIMTVWMjJIMTdWMjRIMTlWMjJIMjFDMjEuNiAyMiAyMiAyMS42IDIyIDIxVjE5SDI0VjE3SDIyVjE1SDI0Wk0xOSAxOUgxM1YxM0gxOVYxOVoiIGZpbGw9IndoaXRlIi8+JiN4YTs8L3N2Zz4=;container=0;" parent="LpiCmBX2S6yraUxqQmJm-72" vertex="1">
          <mxGeometry x="55.190494545454534" y="85.10999999999999" width="25.090909090909083" height="25.090909090909083" as="geometry" />
        </mxCell>
        <mxCell id="LpiCmBX2S6yraUxqQmJm-17" value="&lt;div style=&quot;font-size: 1px&quot;&gt;&lt;font style=&quot;font-size:22.58px;font-family:Arial;color:#000000;direction:ltr;letter-spacing:0px;line-height:120%;opacity:1&quot;&gt;VM 1&lt;br&gt;&lt;/font&gt;&lt;/div&gt;" style="verticalAlign=middle;align=center;overflow=width;vsdxID=7;fillColor=none;gradientColor=none;shape=stencil(nZBLDoAgDERP0z3SIyjew0SURgSD+Lu9kMZoXLhwN9O+tukAlrNpJg1SzDH4QW/URgNYgZTkjA4UkwJUgGXng+6DX1zLfmoymdXo17xh5zmRJ6Q42BWCfc2oJfdAr+Yv+AP9Cb7OJ3H/2JG1HNGz/84klThPVCc=);strokeColor=none;points=[];labelBackgroundColor=none;rounded=0;html=1;whiteSpace=wrap;container=0;" parent="LpiCmBX2S6yraUxqQmJm-72" vertex="1">
          <mxGeometry x="12.35400909090906" y="19.999999999999993" width="133.54822636363636" height="45.889999999999986" as="geometry" />
        </mxCell>
        <mxCell id="LpiCmBX2S6yraUxqQmJm-71" style="edgeStyle=orthogonalEdgeStyle;rounded=0;orthogonalLoop=1;jettySize=auto;html=1;entryX=0.528;entryY=-0.006;entryDx=0;entryDy=0;entryPerimeter=0;" parent="1" source="LpiCmBX2S6yraUxqQmJm-54" target="LpiCmBX2S6yraUxqQmJm-6" edge="1">
          <mxGeometry relative="1" as="geometry" />
        </mxCell>
        <mxCell id="LpiCmBX2S6yraUxqQmJm-102" value="Heath Check" style="edgeLabel;html=1;align=center;verticalAlign=middle;resizable=0;points=[];" parent="LpiCmBX2S6yraUxqQmJm-71" vertex="1" connectable="0">
          <mxGeometry x="0.0659" y="-3" relative="1" as="geometry">
            <mxPoint as="offset" />
          </mxGeometry>
        </mxCell>
        <mxCell id="LpiCmBX2S6yraUxqQmJm-97" style="edgeStyle=orthogonalEdgeStyle;rounded=0;orthogonalLoop=1;jettySize=auto;html=1;entryX=0.476;entryY=0;entryDx=0;entryDy=0;entryPerimeter=0;" parent="1" source="LpiCmBX2S6yraUxqQmJm-57" edge="1">
          <mxGeometry relative="1" as="geometry">
            <mxPoint x="1122.02788" y="437" as="targetPoint" />
          </mxGeometry>
        </mxCell>
        <mxCell id="LpiCmBX2S6yraUxqQmJm-101" value="Heath Check" style="edgeLabel;html=1;align=center;verticalAlign=middle;resizable=0;points=[];" parent="LpiCmBX2S6yraUxqQmJm-97" vertex="1" connectable="0">
          <mxGeometry x="-0.4424" y="-1" relative="1" as="geometry">
            <mxPoint x="-1" as="offset" />
          </mxGeometry>
        </mxCell>
        <mxCell id="LpiCmBX2S6yraUxqQmJm-98" value="" style="group" parent="1" vertex="1" connectable="0">
          <mxGeometry x="560" y="40" width="152" height="130" as="geometry" />
        </mxCell>
        <mxCell id="LpiCmBX2S6yraUxqQmJm-11" value="" style="aspect=fixed;sketch=0;html=1;dashed=0;whitespace=wrap;verticalLabelPosition=bottom;verticalAlign=top;fillColor=#2875E2;strokeColor=#ffffff;points=[[0.005,0.63,0],[0.1,0.2,0],[0.9,0.2,0],[0.5,0,0],[0.995,0.63,0],[0.72,0.99,0],[0.5,1,0],[0.28,0.99,0]];shape=mxgraph.kubernetes.icon2;prIcon=group;container=0;" parent="LpiCmBX2S6yraUxqQmJm-98" vertex="1">
          <mxGeometry x="84" y="10" width="50" height="48" as="geometry" />
        </mxCell>
        <mxCell id="LpiCmBX2S6yraUxqQmJm-12" style="vsdxID=5;fillColor=none;gradientColor=none;shape=stencil(vVPLEoIgFP0aljgEVuPa6j+YRGUica6U9vdhUKk4LWzG3X0cOPdcOIilTclrgShpDOiLaGVmSsQOiFJZlQKksRFiR8TSXIMoQN+qzOU175F9dNX3/obOnSP9CUoeLktIFL8KJ4flcLZN8NhtRJiDwxsf7VwhQHjAhniCDvNONhi04UbqakSuOBQCWy6cK16MWk0rRB2U/XRKVgMlSRwl+1nyhWI+s0+Xs4KYgNvPtlBKuJvVniX4En+9yfxWVpDx2yc2+Bosl0o5fw77U0PakjMzOz4B);strokeColor=#ff5958;spacingTop=-3;spacingBottom=-3;spacingLeft=-3;spacingRight=-3;points=[];labelBackgroundColor=none;rounded=0;html=1;whiteSpace=wrap;container=0;" parent="LpiCmBX2S6yraUxqQmJm-98" vertex="1">
          <mxGeometry width="152" height="130" as="geometry" />
        </mxCell>
        <mxCell id="LpiCmBX2S6yraUxqQmJm-13" value="&lt;div style=&quot;font-size: 1px&quot;&gt;&lt;font style=&quot;font-size:22.58px;font-family:Arial;color:#000000;direction:ltr;letter-spacing:0px;line-height:120%;opacity:1&quot;&gt;Браузер&amp;nbsp;&lt;/font&gt;&lt;/div&gt;&lt;div style=&quot;font-size: 1px&quot;&gt;&lt;font style=&quot;font-size:22.58px;font-family:Arial;color:#000000;direction:ltr;letter-spacing:0px;line-height:120%;opacity:1&quot;&gt;пользователя&lt;/font&gt;&lt;/div&gt;" style="verticalAlign=bottom;align=center;overflow=width;vsdxID=6;fillColor=none;gradientColor=none;strokeColor=none;spacingTop=-3;spacingBottom=-3;spacingLeft=-3;spacingRight=-3;points=[];labelBackgroundColor=none;rounded=0;html=1;whiteSpace=wrap;container=0;" parent="LpiCmBX2S6yraUxqQmJm-98" vertex="1">
          <mxGeometry y="67" width="152" height="53" as="geometry" />
        </mxCell>
        <mxCell id="LpiCmBX2S6yraUxqQmJm-99" style="edgeStyle=orthogonalEdgeStyle;rounded=0;orthogonalLoop=1;jettySize=auto;html=1;entryX=0.483;entryY=-0.011;entryDx=0;entryDy=0;entryPerimeter=0;exitX=0.489;exitY=0.985;exitDx=0;exitDy=0;exitPerimeter=0;" parent="1" source="LpiCmBX2S6yraUxqQmJm-12" target="LpiCmBX2S6yraUxqQmJm-57" edge="1">
          <mxGeometry relative="1" as="geometry" />
        </mxCell>
        <mxCell id="LpiCmBX2S6yraUxqQmJm-104" value="&lt;font style=&quot;font-size: 18px;&quot;&gt;&lt;span style=&quot;color: rgba(0, 0, 0, 0.85); font-family: &amp;quot;YS Text&amp;quot;, Arial, Helvetica, sans-serif; background-color: rgb(255, 255, 255);&quot;&gt;Стратегии балансировки нагрузк - будем использовать&amp;nbsp;&lt;/span&gt;&lt;span style=&quot;box-sizing: inherit; color: rgba(0, 0, 0, 0.85); font-family: &amp;quot;YS Text&amp;quot;, sans-serif; white-space-collapse: preserve; background-color: rgb(255, 255, 255);&quot;&gt;Least Connections &lt;/span&gt;&lt;span style=&quot;box-sizing: inherit; color: rgba(0, 0, 0, 0.85); font-family: &amp;quot;YS Text&amp;quot;, sans-serif; white-space-collapse: preserve; background-color: rgb(255, 255, 255);&quot;&gt;т.к.&lt;/span&gt;&lt;span style=&quot;box-sizing: inherit; color: rgba(0, 0, 0, 0.85); font-family: &amp;quot;YS Text&amp;quot;, sans-serif; white-space-collapse: preserve; background-color: rgb(255, 255, 255);&quot;&gt; &lt;/span&gt;&lt;span style=&quot;color: rgba(0, 0, 0, 0.85); font-family: &amp;quot;YS Text&amp;quot;, sans-serif; white-space-collapse: preserve; background-color: rgb(255, 255, 255);&quot;&gt;стратегия направляет запросы к экземпляру с наименьшим количеством активных соединений. Она помогает распределить нагрузку более равномерно&lt;/span&gt;&lt;/font&gt;" style="whiteSpace=wrap;html=1;align=left;shadow=1;" parent="1" vertex="1">
          <mxGeometry x="1140" y="200" width="480" height="140" as="geometry" />
        </mxCell>
        <mxCell id="LpiCmBX2S6yraUxqQmJm-109" value="" style="group" parent="1" vertex="1" connectable="0">
          <mxGeometry x="470" y="610" width="130" height="100" as="geometry" />
        </mxCell>
        <mxCell id="LpiCmBX2S6yraUxqQmJm-110" style="vsdxID=5;fillColor=none;gradientColor=none;shape=stencil(vVPLEoIgFP0aljgEVuPa6j+YRGUica6U9vdhUKk4LWzG3X0cOPdcOIilTclrgShpDOiLaGVmSsQOiFJZlQKksRFiR8TSXIMoQN+qzOU175F9dNX3/obOnSP9CUoeLktIFL8KJ4flcLZN8NhtRJiDwxsf7VwhQHjAhniCDvNONhi04UbqakSuOBQCWy6cK16MWk0rRB2U/XRKVgMlSRwl+1nyhWI+s0+Xs4KYgNvPtlBKuJvVniX4En+9yfxWVpDx2yc2+Bosl0o5fw77U0PakjMzOz4B);strokeColor=#ff5958;spacingTop=-3;spacingBottom=-3;spacingLeft=-3;spacingRight=-3;points=[];labelBackgroundColor=none;rounded=0;html=1;whiteSpace=wrap;container=0;" parent="LpiCmBX2S6yraUxqQmJm-109" vertex="1">
          <mxGeometry width="130" height="100" as="geometry" />
        </mxCell>
        <mxCell id="LpiCmBX2S6yraUxqQmJm-111" value="" style="shape=image;verticalLabelPosition=bottom;verticalAlign=top;imageAspect=0;aspect=fixed;image=data:image/svg+xml,PHN2ZyB4bWxucz0iaHR0cDovL3d3dy53My5vcmcvMjAwMC9zdmciIHdpZHRoPSIzMiIgaGVpZ2h0PSIzMiIgdmlld0JveD0iMCAwIDMyIDMyIiBmaWxsPSJub25lIj4mI3hhOzxwYXRoIGQ9Ik0wIDE2QzAgNy4xNjM0NCA3LjE2MzQ0IDAgMTYgMFYwQzI0LjgzNjYgMCAzMiA3LjE2MzQ0IDMyIDE2VjE2QzMyIDI0LjgzNjYgMjQuODM2NiAzMiAxNiAzMlYzMkM3LjE2MzQ0IDMyIDAgMjQuODM2NiAwIDE2VjE2WiIgZmlsbD0iIzUyODJGRiIvPiYjeGE7PHBhdGggZD0iTTExLjk5NSAyNEw3LjAwMDk4IDE3LjczOEw4Ljc4MTk4IDkuOTI3TDE2IDYuNDUzTDIzLjIxOCA5LjkyOEwyNC45OTkgMTcuNzM5TDIwLjAwNSAyNEgxMS45OTVaTTIwIDEzLjE5NkwxNS45OTkgMTAuODk5TDEyIDEzLjE5NlYxOC4xTDE2IDIwLjQwMUwyMCAxOC4xVjEzLjE5NlpNMTguNzggMTMuODk2SDE4Ljc4N0wxNiAxNS40OTlMMTMuMjE0IDEzLjg5NUgxMy4yMTlMMTUuOTk5IDEyLjI5OUwxOC43OCAxMy44OTZaIiBmaWxsPSJ3aGl0ZSIvPiYjeGE7PC9zdmc+;container=0;" parent="LpiCmBX2S6yraUxqQmJm-109" vertex="1">
          <mxGeometry x="65" y="10" width="28.571428571428573" height="28.571428571428573" as="geometry" />
        </mxCell>
        <mxCell id="LpiCmBX2S6yraUxqQmJm-112" value="&lt;div style=&quot;font-size: 1px&quot;&gt;&lt;font style=&quot;font-size:22.58px;font-family:Arial;color:#000000;direction:ltr;letter-spacing:0px;line-height:120%;opacity:1&quot;&gt;InsureTech&lt;/font&gt;&lt;/div&gt;&lt;div style=&quot;font-size: 1px&quot;&gt;&lt;font style=&quot;font-size:22.58px;font-family:Arial;color:#000000;direction:ltr;letter-spacing:0px;line-height:120%;opacity:1&quot;&gt;namespace&lt;/font&gt;&lt;/div&gt;" style="verticalAlign=bottom;align=center;overflow=width;vsdxID=6;fillColor=none;gradientColor=none;strokeColor=none;spacingTop=-3;spacingBottom=-3;spacingLeft=-3;spacingRight=-3;points=[];labelBackgroundColor=none;rounded=0;html=1;whiteSpace=wrap;container=0;" parent="LpiCmBX2S6yraUxqQmJm-109" vertex="1">
          <mxGeometry y="40" width="130" height="54" as="geometry" />
        </mxCell>
        <mxCell id="LpiCmBX2S6yraUxqQmJm-113" style="edgeStyle=orthogonalEdgeStyle;rounded=0;orthogonalLoop=1;jettySize=auto;html=1;entryX=0.5;entryY=-0.013;entryDx=0;entryDy=0;entryPerimeter=0;" parent="1" source="LpiCmBX2S6yraUxqQmJm-54" target="LpiCmBX2S6yraUxqQmJm-110" edge="1">
          <mxGeometry relative="1" as="geometry" />
        </mxCell>
        <mxCell id="LpiCmBX2S6yraUxqQmJm-114" value="Heath Check" style="edgeLabel;html=1;align=center;verticalAlign=middle;resizable=0;points=[];" parent="LpiCmBX2S6yraUxqQmJm-113" vertex="1" connectable="0">
          <mxGeometry x="0.2027" y="-2" relative="1" as="geometry">
            <mxPoint as="offset" />
          </mxGeometry>
        </mxCell>
        <mxCell id="LpiCmBX2S6yraUxqQmJm-115" style="edgeStyle=orthogonalEdgeStyle;rounded=0;orthogonalLoop=1;jettySize=auto;html=1;entryX=0.678;entryY=0.019;entryDx=0;entryDy=0;entryPerimeter=0;" parent="1" source="LpiCmBX2S6yraUxqQmJm-112" target="LpiCmBX2S6yraUxqQmJm-8" edge="1">
          <mxGeometry relative="1" as="geometry" />
        </mxCell>
        <mxCell id="LpiCmBX2S6yraUxqQmJm-116" value="TCP" style="edgeLabel;html=1;align=center;verticalAlign=middle;resizable=0;points=[];" parent="LpiCmBX2S6yraUxqQmJm-115" vertex="1" connectable="0">
          <mxGeometry x="-0.5212" y="-5" relative="1" as="geometry">
            <mxPoint as="offset" />
          </mxGeometry>
        </mxCell>
        <mxCell id="LpiCmBX2S6yraUxqQmJm-150" style="edgeStyle=orthogonalEdgeStyle;rounded=0;orthogonalLoop=1;jettySize=auto;html=1;entryX=0.005;entryY=0.504;entryDx=0;entryDy=0;entryPerimeter=0;" parent="1" source="LpiCmBX2S6yraUxqQmJm-15" target="LpiCmBX2S6yraUxqQmJm-138" edge="1">
          <mxGeometry relative="1" as="geometry" />
        </mxCell>
        <mxCell id="LpiCmBX2S6yraUxqQmJm-151" value="Replication" style="edgeLabel;html=1;align=center;verticalAlign=middle;resizable=0;points=[];" parent="LpiCmBX2S6yraUxqQmJm-150" vertex="1" connectable="0">
          <mxGeometry x="-0.208" y="-2" relative="1" as="geometry">
            <mxPoint as="offset" />
          </mxGeometry>
        </mxCell>
        <mxCell id="LpiCmBX2S6yraUxqQmJm-152" style="edgeStyle=orthogonalEdgeStyle;rounded=0;orthogonalLoop=1;jettySize=auto;html=1;" parent="1" source="LpiCmBX2S6yraUxqQmJm-138" target="LpiCmBX2S6yraUxqQmJm-15" edge="1">
          <mxGeometry relative="1" as="geometry" />
        </mxCell>
      </root>
    </mxGraphModel>
  </diagram>
</mxfile>
